G04 ---------------------------- Layer name :BOTTOM SOLDER LAYER*
G04 EasyEDA v5.4.10, Tue, 24 Apr 2018 06:19:31 GMT*
G04 0ec78c7897c84d5d92d9569371cc6eda*
G04 Gerber Generator version 0.2*
G04 Scale: 100 percent, Rotated: No, Reflected: No *
G04 Dimensions in millimeters *
G04 leading zeros omitted , absolute positions ,3 integer and 3 decimal *
%FSLAX33Y33*%
%MOMM*%
G90*
G71D02*

%ADD29C,2.203201*%
%ADD30R,2.203201X2.703200*%
%ADD31C,2.362200*%
%ADD32R,4.488180X2.583180*%
%ADD33R,2.203196X2.203196*%
%ADD34C,2.203196*%
%ADD35C,2.403201*%
%ADD36C,1.981200*%
%ADD37C,2.082800*%
%ADD38C,1.727200*%

%LPD*%
G54D29*
G01X52837Y37360D02*
G01X52837Y36860D01*
G01X50297Y37360D02*
G01X50297Y36860D01*
G01X47785Y6660D02*
G01X47785Y7160D01*
G01X50325Y6660D02*
G01X50325Y7160D01*
G54D30*
G01X47759Y37109D03*
G01X52867Y6911D03*
G54D31*
G01X54310Y31313D03*
G01X46563Y31313D03*
G01X55410Y14013D03*
G01X47663Y14013D03*
G54D32*
G01X4221Y18409D03*
G01X4221Y13406D03*
G01X4221Y23413D03*
G01X86405Y22809D03*
G01X86405Y27813D03*
G01X86405Y17805D03*
G54D33*
G01X10914Y24803D03*
G54D34*
G01X10914Y20744D03*
G01X10914Y16685D03*
G01X10914Y12623D03*
G54D35*
G01X67114Y8412D03*
G01X67114Y16032D03*
G01X67213Y27109D03*
G01X67213Y34729D03*
G54D36*
G01X38912Y31010D03*
G01X38912Y36090D03*
G01X38912Y6410D03*
G01X38912Y11490D03*
G01X79212Y10007D03*
G01X79212Y15087D03*
G01X79212Y28511D03*
G01X79212Y33591D03*
G54D37*
G01X70812Y41709D03*
G01X80972Y41709D03*
G01X69314Y1910D03*
G01X79474Y1910D03*
G54D38*
G01X83413Y2608D03*
G01X85953Y2608D03*
G01X85211Y40010D03*
G01X87751Y40010D03*
G01X28412Y33210D03*
G01X21046Y33210D03*
G01X28412Y12110D03*
G01X21046Y12110D03*
M00*
M02*
