G04 ---------------------------- Layer name :BOTTOM LAYER*
G04 EasyEDA v5.4.10, Tue, 24 Apr 2018 06:19:31 GMT*
G04 0ec78c7897c84d5d92d9569371cc6eda*
G04 Gerber Generator version 0.2*
G04 Scale: 100 percent, Rotated: No, Reflected: No *
G04 Dimensions in millimeters *
G04 leading zeros omitted , absolute positions ,3 integer and 3 decimal *
%FSLAX33Y33*%
%MOMM*%
G90*
G71D02*

%ADD11C,1.999996*%
%ADD12C,1.499997*%
%ADD13R,2.000001X2.500000*%
%ADD14C,2.159000*%
%ADD15R,4.284980X2.379980*%
%ADD16R,1.999996X1.999996*%
%ADD17C,2.200001*%
%ADD18C,1.778000*%
%ADD19C,1.879600*%
%ADD20C,1.524000*%
%ADD21C,2.000001*%
%ADD22C,0.999998*%

%LPD*%
G54D22*
G01X4221Y18409D02*
G01X4221Y18709D01*
G01X33012Y18709D01*
G01X28412Y18610D01*
G01X28412Y33210D01*
G01X28412Y33210D01*
G54D11*
G01X21112Y12410D02*
G01X21112Y18710D01*
G01X38912Y31010D02*
G01X39011Y31008D01*
G01X39011Y18610D01*
G01X32712Y18610D01*
G01X21412Y18610D02*
G01X22613Y18610D01*
G01X32913Y18610D01*
G01X32812Y18610D01*
G01X39011Y11587D02*
G01X39011Y18610D01*
G01X50297Y37111D02*
G01X50312Y37109D01*
G01X50312Y22796D01*
G01X39311Y22710D01*
G54D12*
G01X79212Y28511D02*
G01X69013Y28511D01*
G01X67611Y27109D01*
G54D11*
G01X79913Y22710D02*
G01X86305Y22710D01*
G01X86405Y22810D01*
G01X50312Y22796D02*
G01X79814Y22809D01*
G01X79913Y22710D01*
G01X67113Y16031D02*
G01X67113Y22610D01*
G01X67312Y22809D01*
G01X67213Y27109D02*
G01X67213Y22710D01*
G01X79212Y15087D02*
G01X68057Y15087D01*
G01X67113Y16031D01*
G01X87751Y40010D02*
G01X87751Y37271D01*
G01X87812Y37211D01*
G01X72511Y37211D01*
G01X72512Y28810D01*
G01X72512Y28810D01*
G01X79212Y15087D02*
G01X79248Y15087D01*
G01X85812Y5010D01*
G01X85956Y2608D01*
G01X38912Y11490D02*
G01X43493Y11490D01*
G01X43612Y11510D01*
G01X43612Y2910D01*
G01X52712Y2910D01*
G01X52912Y3110D01*
G01X52912Y6866D01*
G01X52867Y6911D01*
G54D13*
G01X47759Y37109D03*
G01X52867Y6911D03*
G54D14*
G01X54310Y31313D03*
G01X46563Y31313D03*
G01X55410Y14013D03*
G01X47663Y14013D03*
G54D15*
G01X4221Y18409D03*
G01X4221Y13406D03*
G01X4221Y23413D03*
G01X86405Y22809D03*
G01X86405Y27813D03*
G01X86405Y17805D03*
G54D16*
G01X10914Y24803D03*
G54D11*
G01X10914Y20744D03*
G01X10914Y16685D03*
G01X10914Y12623D03*
G54D17*
G01X67114Y8412D03*
G01X67114Y16032D03*
G01X67213Y27109D03*
G01X67213Y34729D03*
G54D18*
G01X38912Y31010D03*
G01X38912Y36090D03*
G01X38912Y6410D03*
G01X38912Y11490D03*
G01X79212Y10007D03*
G01X79212Y15087D03*
G01X79212Y28511D03*
G01X79212Y33591D03*
G54D19*
G01X70812Y41709D03*
G01X80972Y41709D03*
G01X69314Y1910D03*
G01X79474Y1910D03*
G54D20*
G01X83413Y2608D03*
G01X85953Y2608D03*
G01X85211Y40010D03*
G01X87751Y40010D03*
G01X28412Y33210D03*
G01X21046Y33210D03*
G01X28412Y12110D03*
G01X21046Y12110D03*
G54D21*
G01X52837Y37360D02*
G01X52837Y36860D01*
G01X50297Y37360D02*
G01X50297Y36860D01*
G01X47785Y6660D02*
G01X47785Y7160D01*
G01X50325Y6660D02*
G01X50325Y7160D01*
M00*
M02*
