G04 ---------------------------- Layer name :TOP LAYER*
G04 EasyEDA v5.4.10, Tue, 24 Apr 2018 06:19:31 GMT*
G04 0ec78c7897c84d5d92d9569371cc6eda*
G04 Gerber Generator version 0.2*
G04 Scale: 100 percent, Rotated: No, Reflected: No *
G04 Dimensions in millimeters *
G04 leading zeros omitted , absolute positions ,3 integer and 3 decimal *
%FSLAX33Y33*%
%MOMM*%
G90*
G71D02*

%ADD11C,1.999996*%
%ADD12C,1.499997*%
%ADD13R,2.000001X2.500000*%
%ADD14C,2.159000*%
%ADD15R,4.284980X2.379980*%
%ADD16R,1.999996X1.999996*%
%ADD17C,2.200001*%
%ADD18C,1.778000*%
%ADD19C,1.879600*%
%ADD20C,1.524000*%
%ADD21C,2.000001*%

%LPD*%
G54D11*
G01X52812Y37110D02*
G01X52812Y32784D01*
G01X54285Y31311D01*
G01X4220Y23414D02*
G01X5408Y23414D01*
G01X5412Y23410D01*
G01X5412Y21610D01*
G01X10749Y20910D01*
G01X10915Y20751D01*
G01X4221Y13406D02*
G01X5410Y13406D01*
G01X5511Y13512D01*
G01X5512Y14610D01*
G01X6812Y15510D01*
G01X10741Y16510D01*
G01X10916Y16685D01*
G01X10915Y24805D02*
G01X10915Y31807D01*
G01X10912Y33210D01*
G01X21046Y33210D01*
G01X21046Y33210D01*
G01X28412Y12110D02*
G01X28371Y12110D01*
G01X28412Y6510D01*
G01X32811Y6410D01*
G01X11112Y6410D01*
G01X11115Y12514D01*
G01X10916Y12623D01*
G01X21046Y33210D02*
G01X21013Y33385D01*
G01X21013Y37109D01*
G01X38912Y37110D01*
G01X38912Y36090D01*
G01X44414Y6408D02*
G01X32514Y6408D01*
G01X32612Y6410D01*
G01X32811Y6410D01*
G01X38912Y37109D02*
G01X38912Y37110D01*
G01X45312Y37110D01*
G01X47759Y37109D01*
G54D12*
G01X52837Y37111D02*
G01X65232Y37109D01*
G01X67611Y34729D01*
G01X47785Y6911D02*
G01X47706Y6911D01*
G01X47726Y18209D01*
G01X63972Y18209D01*
G01X64053Y8211D01*
G01X77312Y8211D01*
G01X79212Y10007D01*
G54D11*
G01X50325Y6911D02*
G01X50358Y6967D01*
G01X50218Y2413D01*
G01X44416Y2410D01*
G01X44414Y6408D01*
G01X67612Y34729D02*
G01X67612Y34810D01*
G01X77012Y34810D01*
G01X79212Y33591D01*
G01X79212Y33591D02*
G01X80628Y33591D01*
G01X86405Y27814D01*
G01X50218Y2413D02*
G01X57612Y2410D01*
G01X57612Y2509D01*
G01X57612Y13911D01*
G01X55410Y14013D01*
G01X57312Y14010D01*
G01X86405Y17805D02*
G01X86405Y17200D01*
G01X79212Y10007D01*
G01X67213Y34729D02*
G01X67213Y38110D01*
G01X70812Y41709D01*
G01X83415Y2607D02*
G01X80174Y2607D01*
G01X79475Y1908D01*
G01X69315Y1908D02*
G01X71313Y1908D01*
G01X71312Y7910D01*
G01X47612Y37110D02*
G01X47612Y32505D01*
G01X46418Y31311D01*
G01X80972Y41709D02*
G01X83512Y41709D01*
G01X85211Y40010D01*
G54D13*
G01X47759Y37109D03*
G01X52867Y6911D03*
G54D14*
G01X54310Y31313D03*
G01X46563Y31313D03*
G01X55410Y14013D03*
G01X47663Y14013D03*
G54D15*
G01X4221Y18409D03*
G01X4221Y13406D03*
G01X4221Y23413D03*
G01X86405Y22809D03*
G01X86405Y27813D03*
G01X86405Y17805D03*
G54D16*
G01X10914Y24803D03*
G54D11*
G01X10914Y20744D03*
G01X10914Y16685D03*
G01X10914Y12623D03*
G54D17*
G01X67114Y8412D03*
G01X67114Y16032D03*
G01X67213Y27109D03*
G01X67213Y34729D03*
G54D18*
G01X38912Y31010D03*
G01X38912Y36090D03*
G01X38912Y6410D03*
G01X38912Y11490D03*
G01X79212Y10007D03*
G01X79212Y15087D03*
G01X79212Y28511D03*
G01X79212Y33591D03*
G54D19*
G01X70812Y41709D03*
G01X80972Y41709D03*
G01X69314Y1910D03*
G01X79474Y1910D03*
G54D20*
G01X83413Y2608D03*
G01X85953Y2608D03*
G01X85211Y40010D03*
G01X87751Y40010D03*
G01X28412Y33210D03*
G01X21046Y33210D03*
G01X28412Y12110D03*
G01X21046Y12110D03*
G54D21*
G01X52837Y37360D02*
G01X52837Y36860D01*
G01X50297Y37360D02*
G01X50297Y36860D01*
G01X47785Y6660D02*
G01X47785Y7160D01*
G01X50325Y6660D02*
G01X50325Y7160D01*
M00*
M02*
