G04 ---------------------------- Layer name :TOP SILK LAYER*
G04 EasyEDA v5.4.10, Tue, 24 Apr 2018 06:19:31 GMT*
G04 0ec78c7897c84d5d92d9569371cc6eda*
G04 Gerber Generator version 0.2*
G04 Scale: 100 percent, Rotated: No, Reflected: No *
G04 Dimensions in millimeters *
G04 leading zeros omitted , absolute positions ,3 integer and 3 decimal *
%FSLAX33Y33*%
%MOMM*%
G90*
G71D02*

%ADD10C,0.254000*%
%ADD23C,0.228600*%
%ADD24C,0.177800*%
%ADD25C,0.399999*%
%ADD26C,0.203200*%
%ADD27C,0.152400*%
%ADD28C,0.150114*%

%LPD*%
G54D10*
G01X44998Y39910D02*
G01X55598Y39910D01*
G01X55598Y35110D01*
G01X44998Y35110D01*
G01X44998Y39910D01*
G01X55598Y39410D02*
G01X44998Y39410D01*
G01X55626Y4110D02*
G01X45026Y4110D01*
G01X45026Y8910D01*
G01X55626Y8910D01*
G01X55626Y4110D01*
G01X45026Y4610D02*
G01X55626Y4610D01*
G54D23*
G01X53040Y29940D02*
G01X47833Y29940D01*
G01X47833Y32683D01*
G01X53040Y32683D01*
G01X53040Y29940D01*
G01X48468Y29940D02*
G01X48468Y32683D01*
G01X54140Y12640D02*
G01X48933Y12640D01*
G01X48933Y15383D01*
G01X54140Y15383D01*
G01X54140Y12640D01*
G01X49568Y12640D02*
G01X49568Y15383D01*
G54D10*
G01X4Y10917D02*
G01X4Y25903D01*
G01X4Y25903D02*
G01X1731Y25903D01*
G01X1731Y25903D02*
G01X6786Y25903D01*
G01X6786Y25903D02*
G01X7522Y25903D01*
G01X7522Y25903D02*
G01X7522Y10917D01*
G01X7522Y10917D02*
G01X6786Y10917D01*
G01X6786Y10917D02*
G01X1731Y10917D01*
G01X1731Y10917D02*
G01X1604Y10917D01*
G01X1604Y10917D02*
G01X1020Y10917D01*
G01X1020Y10917D02*
G01X4Y10917D01*
G01X1020Y10917D02*
G01X867Y10333D01*
G01X867Y10333D02*
G01X1756Y10333D01*
G01X1756Y10333D02*
G01X1604Y10917D01*
G01X1731Y10917D02*
G01X1731Y25903D01*
G01X6786Y10917D02*
G01X6786Y25903D01*
G01X90620Y30303D02*
G01X90620Y15317D01*
G01X90620Y15317D02*
G01X88893Y15317D01*
G01X88893Y15317D02*
G01X83839Y15317D01*
G01X83839Y15317D02*
G01X83102Y15317D01*
G01X83102Y15317D02*
G01X83102Y30303D01*
G01X83102Y30303D02*
G01X83839Y30303D01*
G01X83839Y30303D02*
G01X88893Y30303D01*
G01X88893Y30303D02*
G01X89020Y30303D01*
G01X89020Y30303D02*
G01X89604Y30303D01*
G01X89604Y30303D02*
G01X90620Y30303D01*
G01X89604Y30303D02*
G01X89757Y30887D01*
G01X89757Y30887D02*
G01X88868Y30887D01*
G01X88868Y30887D02*
G01X89020Y30303D01*
G01X88893Y30303D02*
G01X88893Y15317D01*
G01X83839Y30303D02*
G01X83839Y15317D01*
G01X9814Y26114D02*
G01X9814Y11314D01*
G01X9814Y26114D02*
G01X13464Y26114D01*
G01X13464Y11314D02*
G01X13464Y26114D01*
G01X13464Y11314D02*
G01X9814Y11314D01*
G01X13464Y23031D02*
G01X9814Y23031D01*
G01X66579Y18926D02*
G01X68306Y18926D01*
G01X67417Y18037D02*
G01X67417Y19713D01*
G01X66679Y37626D02*
G01X68406Y37626D01*
G01X67517Y36737D02*
G01X67517Y38413D01*
G54D24*
G01X38912Y37614D02*
G01X41452Y37614D01*
G01X41452Y29486D01*
G01X36372Y29486D01*
G01X36372Y37614D01*
G01X38912Y37614D01*
G01X38912Y13014D02*
G01X41452Y13014D01*
G01X41452Y4886D01*
G01X36372Y4886D01*
G01X36372Y13014D01*
G01X38912Y13014D01*
G01X79212Y16612D02*
G01X81752Y16612D01*
G01X81752Y8484D01*
G01X76672Y8484D01*
G01X76672Y16612D01*
G01X79212Y16612D01*
G01X79212Y35114D02*
G01X81752Y35114D01*
G01X81752Y26986D01*
G01X76672Y26986D01*
G01X76672Y35114D01*
G01X79212Y35114D01*
G54D10*
G01X72742Y40516D02*
G01X72742Y42904D01*
G01X72742Y42904D02*
G01X79041Y42904D01*
G01X79041Y42904D02*
G01X79041Y40516D01*
G01X79041Y40516D02*
G01X72742Y40516D01*
G01X71244Y715D02*
G01X71244Y3102D01*
G01X71244Y3102D02*
G01X77543Y3102D01*
G01X77543Y3102D02*
G01X77543Y715D01*
G01X77543Y715D02*
G01X71244Y715D01*
G01X86970Y3879D02*
G01X86970Y1339D01*
G01X88768Y41280D02*
G01X88768Y38740D01*
G01X32222Y27876D02*
G01X32222Y28130D01*
G01X32730Y28638D01*
G01X32730Y34480D01*
G01X33492Y35242D01*
G01X33238Y35242D01*
G01X32222Y6776D02*
G01X32222Y7030D01*
G01X32730Y7538D01*
G01X32730Y13380D01*
G01X33492Y14142D01*
G01X33238Y14142D01*
G54D26*
G01X83212Y12902D02*
G01X84876Y12902D01*
G01X86684Y13365D02*
G01X86593Y13088D01*
G01X86407Y12902D01*
G01X86131Y12811D01*
G01X86039Y12811D01*
G01X85762Y12902D01*
G01X85577Y13088D01*
G01X85485Y13365D01*
G01X85485Y13456D01*
G01X85577Y13733D01*
G01X85762Y13918D01*
G01X86039Y14010D01*
G01X86131Y14010D01*
G01X86407Y13918D01*
G01X86593Y13733D01*
G01X86684Y13365D01*
G01X86684Y12902D01*
G01X86593Y12440D01*
G01X86407Y12163D01*
G01X86131Y12072D01*
G01X85945Y12072D01*
G01X85668Y12163D01*
G01X85577Y12349D01*
G01X87294Y14010D02*
G01X88033Y12072D01*
G01X88772Y14010D02*
G01X88033Y12072D01*
G01X84043Y33441D02*
G01X84043Y31780D01*
G01X83212Y32611D02*
G01X84874Y32611D01*
G01X86685Y33073D02*
G01X86593Y32796D01*
G01X86408Y32611D01*
G01X86131Y32517D01*
G01X86039Y32517D01*
G01X85763Y32611D01*
G01X85577Y32796D01*
G01X85483Y33073D01*
G01X85483Y33164D01*
G01X85577Y33441D01*
G01X85763Y33627D01*
G01X86039Y33718D01*
G01X86131Y33718D01*
G01X86408Y33627D01*
G01X86593Y33441D01*
G01X86685Y33073D01*
G01X86685Y32611D01*
G01X86593Y32148D01*
G01X86408Y31871D01*
G01X86131Y31780D01*
G01X85945Y31780D01*
G01X85669Y31871D01*
G01X85577Y32057D01*
G01X87294Y33718D02*
G01X88033Y31780D01*
G01X88773Y33718D02*
G01X88033Y31780D01*
G01X78199Y23248D02*
G01X78105Y23433D01*
G01X77922Y23618D01*
G01X77737Y23710D01*
G01X77368Y23710D01*
G01X77183Y23618D01*
G01X76998Y23433D01*
G01X76906Y23248D01*
G01X76812Y22971D01*
G01X76812Y22511D01*
G01X76906Y22232D01*
G01X76998Y22049D01*
G01X77183Y21863D01*
G01X77368Y21772D01*
G01X77737Y21772D01*
G01X77922Y21863D01*
G01X78105Y22049D01*
G01X78199Y22232D01*
G01X78199Y22511D01*
G01X77737Y22511D02*
G01X78199Y22511D01*
G01X78809Y23710D02*
G01X78809Y21772D01*
G01X78809Y23710D02*
G01X80101Y21772D01*
G01X80101Y23710D02*
G01X80101Y21772D01*
G01X80711Y23710D02*
G01X80711Y21772D01*
G01X80711Y23710D02*
G01X81356Y23710D01*
G01X81636Y23618D01*
G01X81819Y23433D01*
G01X81913Y23248D01*
G01X82004Y22971D01*
G01X82004Y22511D01*
G01X81913Y22232D01*
G01X81819Y22049D01*
G01X81636Y21863D01*
G01X81356Y21772D01*
G01X80711Y21772D01*
G01X82645Y40610D02*
G01X82645Y38946D01*
G01X81812Y39777D02*
G01X83476Y39777D01*
G01X88343Y3210D02*
G01X88343Y1546D01*
G01X87512Y2379D02*
G01X89173Y2379D01*
G01X71805Y2456D02*
G01X71805Y2550D01*
G01X71897Y2733D01*
G01X71988Y2827D01*
G01X72174Y2918D01*
G01X72544Y2918D01*
G01X72727Y2827D01*
G01X72821Y2733D01*
G01X72913Y2550D01*
G01X72913Y2364D01*
G01X72821Y2179D01*
G01X72636Y1902D01*
G01X71711Y980D01*
G01X73004Y980D01*
G01X73708Y2456D02*
G01X73708Y2550D01*
G01X73799Y2733D01*
G01X73891Y2827D01*
G01X74076Y2918D01*
G01X74447Y2918D01*
G01X74630Y2827D01*
G01X74724Y2733D01*
G01X74815Y2550D01*
G01X74815Y2364D01*
G01X74724Y2179D01*
G01X74538Y1902D01*
G01X73614Y980D01*
G01X74907Y980D01*
G01X76073Y2918D02*
G01X75796Y2827D01*
G01X75610Y2550D01*
G01X75516Y2087D01*
G01X75516Y1811D01*
G01X75610Y1348D01*
G01X75796Y1071D01*
G01X76073Y980D01*
G01X76255Y980D01*
G01X76532Y1071D01*
G01X76718Y1348D01*
G01X76812Y1811D01*
G01X76812Y2087D01*
G01X76718Y2550D01*
G01X76532Y2827D01*
G01X76255Y2918D01*
G01X76073Y2918D01*
G01X73604Y42248D02*
G01X73604Y42342D01*
G01X73695Y42524D01*
G01X73789Y42618D01*
G01X73972Y42710D01*
G01X74343Y42710D01*
G01X74528Y42618D01*
G01X74620Y42524D01*
G01X74711Y42342D01*
G01X74711Y42156D01*
G01X74620Y41971D01*
G01X74434Y41694D01*
G01X73512Y40769D01*
G01X74805Y40769D01*
G01X75506Y42248D02*
G01X75506Y42342D01*
G01X75597Y42524D01*
G01X75691Y42618D01*
G01X75877Y42710D01*
G01X76245Y42710D01*
G01X76431Y42618D01*
G01X76522Y42524D01*
G01X76613Y42342D01*
G01X76613Y42156D01*
G01X76522Y41971D01*
G01X76337Y41694D01*
G01X75415Y40769D01*
G01X76707Y40769D01*
G01X77871Y42710D02*
G01X77594Y42618D01*
G01X77409Y42342D01*
G01X77317Y41879D01*
G01X77317Y41602D01*
G01X77409Y41140D01*
G01X77594Y40863D01*
G01X77871Y40769D01*
G01X78056Y40769D01*
G01X78333Y40863D01*
G01X78518Y41140D01*
G01X78610Y41602D01*
G01X78610Y41879D01*
G01X78518Y42342D01*
G01X78333Y42618D01*
G01X78056Y42710D01*
G01X77871Y42710D01*
G54D24*
G01X43199Y37364D02*
G01X43976Y37364D01*
G01X44134Y37415D01*
G01X44238Y37519D01*
G01X44288Y37676D01*
G01X44288Y37781D01*
G01X44238Y37935D01*
G01X44134Y38040D01*
G01X43976Y38090D01*
G01X43199Y38090D01*
G01X43405Y38433D02*
G01X43354Y38537D01*
G01X43199Y38695D01*
G01X44288Y38695D01*
G01X56181Y6656D02*
G01X56958Y6656D01*
G01X57115Y6707D01*
G01X57219Y6811D01*
G01X57270Y6968D01*
G01X57270Y7072D01*
G01X57219Y7227D01*
G01X57115Y7331D01*
G01X56958Y7382D01*
G01X56181Y7382D01*
G01X56440Y7779D02*
G01X56386Y7779D01*
G01X56282Y7829D01*
G01X56231Y7883D01*
G01X56181Y7987D01*
G01X56181Y8193D01*
G01X56231Y8297D01*
G01X56282Y8350D01*
G01X56386Y8401D01*
G01X56490Y8401D01*
G01X56595Y8350D01*
G01X56752Y8246D01*
G01X57270Y7725D01*
G01X57270Y8454D01*
G01X50500Y29140D02*
G01X50500Y28050D01*
G01X50500Y29140D02*
G01X50863Y29140D01*
G01X51021Y29089D01*
G01X51122Y28985D01*
G01X51176Y28881D01*
G01X51226Y28726D01*
G01X51226Y28467D01*
G01X51176Y28309D01*
G01X51122Y28205D01*
G01X51021Y28101D01*
G01X50863Y28050D01*
G01X50500Y28050D01*
G01X51569Y28934D02*
G01X51674Y28985D01*
G01X51831Y29140D01*
G01X51831Y28050D01*
G01X53398Y10750D02*
G01X53398Y11840D01*
G01X53398Y10750D02*
G01X53035Y10750D01*
G01X52877Y10801D01*
G01X52776Y10905D01*
G01X52723Y11009D01*
G01X52672Y11164D01*
G01X52672Y11423D01*
G01X52723Y11581D01*
G01X52776Y11685D01*
G01X52877Y11789D01*
G01X53035Y11840D01*
G01X53398Y11840D01*
G01X52276Y11009D02*
G01X52276Y10956D01*
G01X52225Y10852D01*
G01X52171Y10801D01*
G01X52067Y10750D01*
G01X51861Y10750D01*
G01X51757Y10801D01*
G01X51704Y10852D01*
G01X51653Y10956D01*
G01X51653Y11060D01*
G01X51704Y11164D01*
G01X51808Y11322D01*
G01X52329Y11840D01*
G01X51600Y11840D01*
G01X412Y15712D02*
G01X1189Y15712D01*
G01X1347Y15762D01*
G01X1451Y15867D01*
G01X1502Y16024D01*
G01X1502Y16128D01*
G01X1451Y16283D01*
G01X1347Y16387D01*
G01X1189Y16438D01*
G01X412Y16438D01*
G01X412Y16885D02*
G01X412Y17457D01*
G01X826Y17147D01*
G01X826Y17302D01*
G01X880Y17406D01*
G01X930Y17457D01*
G01X1085Y17510D01*
G01X1189Y17510D01*
G01X1347Y17457D01*
G01X1451Y17352D01*
G01X1502Y17198D01*
G01X1502Y17043D01*
G01X1451Y16885D01*
G01X1398Y16834D01*
G01X1294Y16781D01*
G54D27*
G01X8744Y22906D02*
G01X8708Y22974D01*
G01X8604Y23078D01*
G01X9333Y23078D01*
G54D24*
G01X82416Y25059D02*
G01X82363Y25110D01*
G01X82312Y25059D01*
G01X82363Y25008D01*
G01X82416Y25059D01*
G54D27*
G01X81880Y18314D02*
G01X81916Y18246D01*
G01X82020Y18141D01*
G01X81291Y18141D01*
G54D24*
G01X14356Y18714D02*
G01X15133Y18714D01*
G01X15291Y18765D01*
G01X15395Y18869D01*
G01X15446Y19026D01*
G01X15446Y19130D01*
G01X15395Y19285D01*
G01X15291Y19389D01*
G01X15133Y19440D01*
G01X14356Y19440D01*
G01X14356Y20408D02*
G01X14356Y19887D01*
G01X14823Y19836D01*
G01X14770Y19887D01*
G01X14719Y20045D01*
G01X14719Y20200D01*
G01X14770Y20355D01*
G01X14874Y20459D01*
G01X15029Y20512D01*
G01X15133Y20512D01*
G01X15291Y20459D01*
G01X15395Y20355D01*
G01X15446Y20200D01*
G01X15446Y20045D01*
G01X15395Y19887D01*
G01X15342Y19836D01*
G01X15237Y19783D01*
G54D28*
G01X13307Y24703D02*
G01X12078Y24703D01*
G01X12692Y25318D02*
G01X12692Y24091D01*
G01X12748Y13075D02*
G01X12748Y11848D01*
G54D24*
G01X67891Y21727D02*
G01X67840Y21832D01*
G01X67736Y21936D01*
G01X67632Y21987D01*
G01X67424Y21987D01*
G01X67320Y21936D01*
G01X67215Y21832D01*
G01X67165Y21727D01*
G01X67111Y21573D01*
G01X67111Y21311D01*
G01X67165Y21156D01*
G01X67215Y21052D01*
G01X67320Y20948D01*
G01X67424Y20897D01*
G01X67632Y20897D01*
G01X67736Y20948D01*
G01X67840Y21052D01*
G01X67891Y21156D01*
G01X68338Y21987D02*
G01X68910Y21987D01*
G01X68597Y21573D01*
G01X68755Y21573D01*
G01X68859Y21519D01*
G01X68910Y21468D01*
G01X68960Y21311D01*
G01X68960Y21209D01*
G01X68910Y21052D01*
G01X68806Y20948D01*
G01X68651Y20897D01*
G01X68493Y20897D01*
G01X68338Y20948D01*
G01X68287Y21001D01*
G01X68234Y21105D01*
G01X67992Y40428D02*
G01X67939Y40532D01*
G01X67834Y40636D01*
G01X67733Y40687D01*
G01X67525Y40687D01*
G01X67420Y40636D01*
G01X67316Y40532D01*
G01X67263Y40428D01*
G01X67212Y40273D01*
G01X67212Y40011D01*
G01X67263Y39856D01*
G01X67316Y39752D01*
G01X67420Y39648D01*
G01X67525Y39597D01*
G01X67733Y39597D01*
G01X67834Y39648D01*
G01X67939Y39752D01*
G01X67992Y39856D01*
G01X68853Y40687D02*
G01X68335Y39961D01*
G01X69115Y39961D01*
G01X68853Y40687D02*
G01X68853Y39597D01*
G01X39564Y39122D02*
G01X39513Y39223D01*
G01X39409Y39327D01*
G01X39305Y39381D01*
G01X39096Y39381D01*
G01X38992Y39327D01*
G01X38888Y39223D01*
G01X38837Y39122D01*
G01X38786Y38964D01*
G01X38786Y38705D01*
G01X38837Y38550D01*
G01X38888Y38446D01*
G01X38992Y38342D01*
G01X39096Y38289D01*
G01X39305Y38289D01*
G01X39409Y38342D01*
G01X39513Y38446D01*
G01X39564Y38550D01*
G01X40531Y39381D02*
G01X40011Y39381D01*
G01X39960Y38913D01*
G01X40011Y38964D01*
G01X40168Y39018D01*
G01X40323Y39018D01*
G01X40478Y38964D01*
G01X40582Y38860D01*
G01X40636Y38705D01*
G01X40636Y38601D01*
G01X40582Y38446D01*
G01X40478Y38342D01*
G01X40323Y38289D01*
G01X40168Y38289D01*
G01X40011Y38342D01*
G01X39960Y38393D01*
G01X39907Y38497D01*
G01X39564Y14520D02*
G01X39513Y14624D01*
G01X39409Y14728D01*
G01X39305Y14781D01*
G01X39096Y14781D01*
G01X38992Y14728D01*
G01X38888Y14624D01*
G01X38837Y14520D01*
G01X38786Y14365D01*
G01X38786Y14106D01*
G01X38837Y13948D01*
G01X38888Y13844D01*
G01X38992Y13743D01*
G01X39096Y13689D01*
G01X39305Y13689D01*
G01X39409Y13743D01*
G01X39513Y13844D01*
G01X39564Y13948D01*
G01X40531Y14624D02*
G01X40478Y14728D01*
G01X40323Y14781D01*
G01X40219Y14781D01*
G01X40064Y14728D01*
G01X39960Y14573D01*
G01X39907Y14314D01*
G01X39907Y14052D01*
G01X39960Y13844D01*
G01X40064Y13743D01*
G01X40219Y13689D01*
G01X40270Y13689D01*
G01X40427Y13743D01*
G01X40531Y13844D01*
G01X40582Y14002D01*
G01X40582Y14052D01*
G01X40531Y14210D01*
G01X40427Y14314D01*
G01X40270Y14365D01*
G01X40219Y14365D01*
G01X40064Y14314D01*
G01X39960Y14210D01*
G01X39907Y14052D01*
G01X79865Y18120D02*
G01X79812Y18224D01*
G01X79707Y18328D01*
G01X79606Y18379D01*
G01X79397Y18379D01*
G01X79293Y18328D01*
G01X79189Y18224D01*
G01X79136Y18120D01*
G01X79085Y17962D01*
G01X79085Y17703D01*
G01X79136Y17548D01*
G01X79189Y17444D01*
G01X79293Y17340D01*
G01X79397Y17289D01*
G01X79606Y17289D01*
G01X79707Y17340D01*
G01X79812Y17444D01*
G01X79865Y17548D01*
G01X80934Y18379D02*
G01X80416Y17289D01*
G01X80208Y18379D02*
G01X80934Y18379D01*
G01X79865Y36620D02*
G01X79812Y36724D01*
G01X79707Y36828D01*
G01X79606Y36879D01*
G01X79397Y36879D01*
G01X79293Y36828D01*
G01X79189Y36724D01*
G01X79136Y36620D01*
G01X79085Y36465D01*
G01X79085Y36206D01*
G01X79136Y36049D01*
G01X79189Y35945D01*
G01X79293Y35840D01*
G01X79397Y35790D01*
G01X79606Y35790D01*
G01X79707Y35840D01*
G01X79812Y35945D01*
G01X79865Y36049D01*
G01X80467Y36879D02*
G01X80312Y36828D01*
G01X80259Y36724D01*
G01X80259Y36620D01*
G01X80312Y36516D01*
G01X80416Y36465D01*
G01X80622Y36412D01*
G01X80779Y36361D01*
G01X80883Y36257D01*
G01X80934Y36153D01*
G01X80934Y35998D01*
G01X80883Y35894D01*
G01X80830Y35840D01*
G01X80675Y35790D01*
G01X80467Y35790D01*
G01X80312Y35840D01*
G01X80259Y35894D01*
G01X80208Y35998D01*
G01X80208Y36153D01*
G01X80259Y36257D01*
G01X80363Y36361D01*
G01X80520Y36412D01*
G01X80726Y36465D01*
G01X80830Y36516D01*
G01X80883Y36620D01*
G01X80883Y36724D01*
G01X80830Y36828D01*
G01X80675Y36879D01*
G01X80467Y36879D01*
G01X75012Y40110D02*
G01X75012Y39330D01*
G01X75063Y39175D01*
G01X75167Y39071D01*
G01X75325Y39018D01*
G01X75426Y39018D01*
G01X75584Y39071D01*
G01X75688Y39175D01*
G01X75739Y39330D01*
G01X75739Y40110D01*
G01X76341Y40110D02*
G01X76186Y40057D01*
G01X76135Y39952D01*
G01X76135Y39851D01*
G01X76186Y39747D01*
G01X76290Y39693D01*
G01X76498Y39643D01*
G01X76653Y39589D01*
G01X76757Y39485D01*
G01X76810Y39381D01*
G01X76810Y39226D01*
G01X76757Y39122D01*
G01X76706Y39071D01*
G01X76549Y39018D01*
G01X76341Y39018D01*
G01X76186Y39071D01*
G01X76135Y39122D01*
G01X76081Y39226D01*
G01X76081Y39381D01*
G01X76135Y39485D01*
G01X76239Y39589D01*
G01X76394Y39643D01*
G01X76602Y39693D01*
G01X76706Y39747D01*
G01X76757Y39851D01*
G01X76757Y39952D01*
G01X76706Y40057D01*
G01X76549Y40110D01*
G01X76341Y40110D01*
G01X74141Y5073D02*
G01X74141Y4293D01*
G01X74191Y4138D01*
G01X74296Y4034D01*
G01X74450Y3980D01*
G01X74555Y3980D01*
G01X74712Y4034D01*
G01X74816Y4138D01*
G01X74867Y4293D01*
G01X74867Y5073D01*
G01X75886Y4709D02*
G01X75835Y4552D01*
G01X75731Y4448D01*
G01X75573Y4397D01*
G01X75522Y4397D01*
G01X75365Y4448D01*
G01X75263Y4552D01*
G01X75210Y4709D01*
G01X75210Y4760D01*
G01X75263Y4915D01*
G01X75365Y5019D01*
G01X75522Y5073D01*
G01X75573Y5073D01*
G01X75731Y5019D01*
G01X75835Y4915D01*
G01X75886Y4709D01*
G01X75886Y4448D01*
G01X75835Y4189D01*
G01X75731Y4034D01*
G01X75573Y3980D01*
G01X75469Y3980D01*
G01X75314Y4034D01*
G01X75263Y4138D01*
G01X84431Y7296D02*
G01X84431Y6516D01*
G01X84482Y6361D01*
G01X84586Y6257D01*
G01X84741Y6204D01*
G01X84845Y6204D01*
G01X85002Y6257D01*
G01X85107Y6361D01*
G01X85157Y6516D01*
G01X85157Y7296D01*
G01X85500Y7088D02*
G01X85604Y7141D01*
G01X85759Y7296D01*
G01X85759Y6204D01*
G01X86415Y7296D02*
G01X86260Y7243D01*
G01X86156Y7088D01*
G01X86102Y6829D01*
G01X86102Y6671D01*
G01X86156Y6412D01*
G01X86260Y6257D01*
G01X86415Y6204D01*
G01X86519Y6204D01*
G01X86674Y6257D01*
G01X86778Y6412D01*
G01X86831Y6671D01*
G01X86831Y6829D01*
G01X86778Y7088D01*
G01X86674Y7243D01*
G01X86519Y7296D01*
G01X86415Y7296D01*
G01X85412Y36710D02*
G01X85412Y35930D01*
G01X85465Y35773D01*
G01X85570Y35669D01*
G01X85725Y35618D01*
G01X85829Y35618D01*
G01X85984Y35669D01*
G01X86088Y35773D01*
G01X86141Y35930D01*
G01X86141Y36710D01*
G01X86484Y36502D02*
G01X86588Y36552D01*
G01X86743Y36710D01*
G01X86743Y35618D01*
G01X87086Y36502D02*
G01X87190Y36552D01*
G01X87345Y36710D01*
G01X87345Y35618D01*
G01X22812Y26104D02*
G01X22916Y26155D01*
G01X23071Y26310D01*
G01X23071Y25220D01*
G01X23676Y26310D02*
G01X23518Y26259D01*
G01X23467Y26155D01*
G01X23467Y26051D01*
G01X23518Y25947D01*
G01X23622Y25896D01*
G01X23831Y25843D01*
G01X23986Y25792D01*
G01X24090Y25688D01*
G01X24143Y25583D01*
G01X24143Y25429D01*
G01X24090Y25324D01*
G01X24039Y25271D01*
G01X23881Y25220D01*
G01X23676Y25220D01*
G01X23518Y25271D01*
G01X23467Y25324D01*
G01X23414Y25429D01*
G01X23414Y25583D01*
G01X23467Y25688D01*
G01X23572Y25792D01*
G01X23727Y25843D01*
G01X23935Y25896D01*
G01X24039Y25947D01*
G01X24090Y26051D01*
G01X24090Y26155D01*
G01X24039Y26259D01*
G01X23881Y26310D01*
G01X23676Y26310D01*
G01X24486Y25947D02*
G01X24486Y25220D01*
G01X24486Y25738D02*
G01X24641Y25896D01*
G01X24745Y25947D01*
G01X24900Y25947D01*
G01X25004Y25896D01*
G01X25057Y25738D01*
G01X25057Y25220D01*
G01X25057Y25738D02*
G01X25212Y25896D01*
G01X25317Y25947D01*
G01X25472Y25947D01*
G01X25576Y25896D01*
G01X25629Y25738D01*
G01X25629Y25220D01*
G01X25972Y25947D02*
G01X25972Y25220D01*
G01X25972Y25738D02*
G01X26127Y25896D01*
G01X26231Y25947D01*
G01X26386Y25947D01*
G01X26490Y25896D01*
G01X26543Y25738D01*
G01X26543Y25220D01*
G01X26543Y25738D02*
G01X26698Y25896D01*
G01X26802Y25947D01*
G01X26957Y25947D01*
G01X27062Y25896D01*
G01X27115Y25738D01*
G01X27115Y25220D01*
G54D26*
G01X20978Y30347D02*
G01X20978Y32009D01*
G01X21808Y31178D02*
G01X20144Y31178D01*
G54D24*
G01X22612Y5104D02*
G01X22716Y5155D01*
G01X22871Y5310D01*
G01X22871Y4220D01*
G01X23476Y5310D02*
G01X23318Y5259D01*
G01X23267Y5155D01*
G01X23267Y5051D01*
G01X23318Y4947D01*
G01X23422Y4896D01*
G01X23631Y4843D01*
G01X23786Y4792D01*
G01X23890Y4688D01*
G01X23943Y4584D01*
G01X23943Y4429D01*
G01X23890Y4324D01*
G01X23839Y4271D01*
G01X23681Y4220D01*
G01X23476Y4220D01*
G01X23318Y4271D01*
G01X23267Y4324D01*
G01X23214Y4429D01*
G01X23214Y4584D01*
G01X23267Y4688D01*
G01X23372Y4792D01*
G01X23527Y4843D01*
G01X23735Y4896D01*
G01X23839Y4947D01*
G01X23890Y5051D01*
G01X23890Y5155D01*
G01X23839Y5259D01*
G01X23681Y5310D01*
G01X23476Y5310D01*
G01X24286Y4947D02*
G01X24286Y4220D01*
G01X24286Y4739D02*
G01X24441Y4896D01*
G01X24545Y4947D01*
G01X24700Y4947D01*
G01X24804Y4896D01*
G01X24857Y4739D01*
G01X24857Y4220D01*
G01X24857Y4739D02*
G01X25012Y4896D01*
G01X25117Y4947D01*
G01X25272Y4947D01*
G01X25376Y4896D01*
G01X25429Y4739D01*
G01X25429Y4220D01*
G01X25772Y4947D02*
G01X25772Y4220D01*
G01X25772Y4739D02*
G01X25927Y4896D01*
G01X26031Y4947D01*
G01X26186Y4947D01*
G01X26290Y4896D01*
G01X26343Y4739D01*
G01X26343Y4220D01*
G01X26343Y4739D02*
G01X26498Y4896D01*
G01X26602Y4947D01*
G01X26757Y4947D01*
G01X26862Y4896D01*
G01X26915Y4739D01*
G01X26915Y4220D01*
G54D26*
G01X20978Y9247D02*
G01X20978Y10909D01*
G01X21808Y10078D02*
G01X20144Y10078D01*
G54D25*
G75*
G01X45998Y37311D02*
G3X46001Y37311I1J-200D01*
G01*
G75*
G01X54627Y6710D02*
G3X54624Y6710I-1J200D01*
G01*
G54D10*
G75*
G01X12622Y21661D02*
G2X12596Y20518I-24J-571D01*
G01*
G75*
G01X12545Y19374D02*
G2X12571Y20517I24J571D01*
G01*
G75*
G01X12749Y17901D02*
G2X12723Y16758I-24J-571D01*
G01*
G75*
G01X12672Y15615D02*
G2X12698Y16758I24J571D01*
G01*
G75*
G01X75114Y12271D02*
G3X75111Y12132I-8000J76D01*
G01*
G75*
G01X75214Y30971D02*
G3X75211Y30832I-8000J76D01*
G01*
G75*
G01X86971Y3879D02*
G3X86971Y1339I-2286J-1270D01*
G01*
G75*
G01X88769Y41280D02*
G3X88769Y38740I-2286J-1270D01*
G01*
G75*
G01X1782Y13407D02*
G03X1782Y13407I-457J0D01*
G01*
G75*
G01X1782Y18410D02*
G03X1782Y18410I-457J0D01*
G01*
G75*
G01X1782Y23414D02*
G03X1782Y23414I-457J0D01*
G01*
G75*
G01X89757Y27814D02*
G03X89757Y27814I-457J0D01*
G01*
G75*
G01X89757Y22810D02*
G03X89757Y22810I-457J0D01*
G01*
G75*
G01X89757Y17807D02*
G03X89757Y17807I-457J0D01*
G01*
G75*
G01X34001Y33210D02*
G03X34001Y33210I-9271J0D01*
G01*
G75*
G01X34001Y12110D02*
G03X34001Y12110I-9271J0D01*
G01*
G36*
G01X73005Y6962D02*
G01X61092Y6962D01*
G01X62337Y5718D01*
G01X62718Y5718D01*
G01X63302Y5133D01*
G01X63759Y5133D01*
G01X64140Y4752D01*
G01X64648Y4752D01*
G01X64953Y4448D01*
G01X66071Y4448D01*
G01X66249Y4270D01*
G01X66274Y4295D01*
G01X67468Y4295D01*
G01X67544Y4219D01*
G01X67620Y4295D01*
G01X68789Y4321D01*
G01X69195Y4651D01*
G01X69703Y4651D01*
G01X70008Y4956D01*
G01X70643Y4956D01*
G01X71379Y5692D01*
G01X71633Y5692D01*
G01X73005Y6962D01*
G37*
G36*
G01X73105Y25662D02*
G01X61192Y25662D01*
G01X62437Y24418D01*
G01X62818Y24418D01*
G01X63402Y23833D01*
G01X63859Y23833D01*
G01X64240Y23452D01*
G01X64748Y23452D01*
G01X65053Y23148D01*
G01X66171Y23148D01*
G01X66349Y22970D01*
G01X66374Y22995D01*
G01X67568Y22995D01*
G01X67644Y22919D01*
G01X67720Y22995D01*
G01X68889Y23021D01*
G01X69295Y23351D01*
G01X69803Y23351D01*
G01X70108Y23656D01*
G01X70743Y23656D01*
G01X71479Y24392D01*
G01X71733Y24392D01*
G01X73105Y25662D01*
G37*
G36*
G01X32222Y27876D02*
G01X32222Y38798D01*
G01X34000Y35242D01*
G01X34000Y34480D01*
G01X32222Y27876D01*
G37*
G36*
G01X32730Y28638D02*
G01X34000Y33210D01*
G01X32476Y29146D01*
G01X32984Y28638D01*
G01X32476Y28384D01*
G01X34000Y31940D01*
G01X33746Y33972D01*
G01X32730Y30924D01*
G01X32730Y28638D01*
G37*
G36*
G01X32730Y28892D02*
G01X32476Y28384D01*
G01X32730Y28638D01*
G01X33492Y30416D01*
G01X32984Y31178D01*
G01X32730Y28892D01*
G37*
G36*
G01X32730Y28892D02*
G01X32476Y28638D01*
G01X34000Y34226D01*
G01X32730Y28892D01*
G37*
G36*
G01X32222Y6776D02*
G01X32222Y17698D01*
G01X34000Y14142D01*
G01X34000Y13380D01*
G01X32222Y6776D01*
G37*
G36*
G01X32730Y7538D02*
G01X34000Y12110D01*
G01X32476Y8046D01*
G01X32984Y7538D01*
G01X32476Y7284D01*
G01X34000Y10840D01*
G01X33746Y12872D01*
G01X32730Y9824D01*
G01X32730Y7538D01*
G37*
G36*
G01X32730Y7792D02*
G01X32476Y7284D01*
G01X32730Y7538D01*
G01X33492Y9316D01*
G01X32984Y10078D01*
G01X32730Y7792D01*
G37*
G36*
G01X32730Y7792D02*
G01X32476Y7538D01*
G01X34000Y13126D01*
G01X32730Y7792D01*
G37*
M00*
M02*
