;PTH Drill file created by EasyEDA 
M48
METRIC,LZ,000.000
;Holesize 1 = 0.712 METRIC
T01C0.712
;Holesize 2 = 0.889 METRIC
T02C0.889
;Holesize 3 = 0.900 METRIC
T03C0.900
;Holesize 4 = 0.915 METRIC
T04C0.915
;Holesize 5 = 1.201 METRIC
T05C1.201
;Holesize 6 = 1.300 METRIC
T06C1.300
;Holesize 7 = 1.403 METRIC
T07C1.403
%
G05
G90
T01
X038912Y031010
X038912Y036090
X038912Y006410
X038912Y011490
X079212Y010007
X079212Y015087
X079212Y028511
X079212Y033591
T02
X054310Y031313
X046563Y031313
X055410Y014013
X047663Y014013
T03
X070812Y041709
X080972Y041709
X069314Y001910
X079474Y001910
T04
X083413Y002608
X085953Y002608
X085211Y040010
X087751Y040010
X028412Y033210
X021046Y033210
X028412Y012110
X021046Y012110
T05
X067114Y008412
X067114Y016032
X067213Y027109
X067213Y034729
T06
X047759Y037109
X052837Y037111
X050297Y037111
X052867Y006911
X047785Y006911
X050325Y006911
X010914Y024803
X010914Y020744
X010914Y016685
X010914Y012623
T07
X004221Y018409
X004221Y013406
X004221Y023413
X086405Y022809
X086405Y027813
X086405Y017805
M30
