G04 #@! TF.GenerationSoftware,KiCad,Pcbnew,(5.1.2)-1*
G04 #@! TF.CreationDate,2020-09-23T15:34:57+02:00*
G04 #@! TF.ProjectId,PSU_220vac_9vdc,5053555f-3232-4307-9661-635f39766463,rev?*
G04 #@! TF.SameCoordinates,Original*
G04 #@! TF.FileFunction,Soldermask,Top*
G04 #@! TF.FilePolarity,Negative*
%FSLAX46Y46*%
G04 Gerber Fmt 4.6, Leading zero omitted, Abs format (unit mm)*
G04 Created by KiCad (PCBNEW (5.1.2)-1) date 2020-09-23 15:34:57*
%MOMM*%
%LPD*%
G04 APERTURE LIST*
%ADD10C,0.100000*%
G04 APERTURE END LIST*
D10*
G36*
X126740256Y-117136298D02*
G01*
X126846579Y-117157447D01*
X127147042Y-117281903D01*
X127417451Y-117462585D01*
X127647415Y-117692549D01*
X127828097Y-117962958D01*
X127952553Y-118263421D01*
X128016000Y-118582391D01*
X128016000Y-118907609D01*
X127952553Y-119226579D01*
X127828097Y-119527042D01*
X127647415Y-119797451D01*
X127417451Y-120027415D01*
X127147042Y-120208097D01*
X126846579Y-120332553D01*
X126740256Y-120353702D01*
X126527611Y-120396000D01*
X126202389Y-120396000D01*
X125989744Y-120353702D01*
X125883421Y-120332553D01*
X125582958Y-120208097D01*
X125312549Y-120027415D01*
X125082585Y-119797451D01*
X124901903Y-119527042D01*
X124777447Y-119226579D01*
X124714000Y-118907609D01*
X124714000Y-118582391D01*
X124777447Y-118263421D01*
X124901903Y-117962958D01*
X125082585Y-117692549D01*
X125312549Y-117462585D01*
X125582958Y-117281903D01*
X125883421Y-117157447D01*
X125989744Y-117136298D01*
X126202389Y-117094000D01*
X126527611Y-117094000D01*
X126740256Y-117136298D01*
X126740256Y-117136298D01*
G37*
G36*
X27680256Y-117136298D02*
G01*
X27786579Y-117157447D01*
X28087042Y-117281903D01*
X28357451Y-117462585D01*
X28587415Y-117692549D01*
X28768097Y-117962958D01*
X28892553Y-118263421D01*
X28956000Y-118582391D01*
X28956000Y-118907609D01*
X28892553Y-119226579D01*
X28768097Y-119527042D01*
X28587415Y-119797451D01*
X28357451Y-120027415D01*
X28087042Y-120208097D01*
X27786579Y-120332553D01*
X27680256Y-120353702D01*
X27467611Y-120396000D01*
X27142389Y-120396000D01*
X26929744Y-120353702D01*
X26823421Y-120332553D01*
X26522958Y-120208097D01*
X26252549Y-120027415D01*
X26022585Y-119797451D01*
X25841903Y-119527042D01*
X25717447Y-119226579D01*
X25654000Y-118907609D01*
X25654000Y-118582391D01*
X25717447Y-118263421D01*
X25841903Y-117962958D01*
X26022585Y-117692549D01*
X26252549Y-117462585D01*
X26522958Y-117281903D01*
X26823421Y-117157447D01*
X26929744Y-117136298D01*
X27142389Y-117094000D01*
X27467611Y-117094000D01*
X27680256Y-117136298D01*
X27680256Y-117136298D01*
G37*
G36*
X100017133Y-116490527D02*
G01*
X100176637Y-116522255D01*
X100264651Y-116558711D01*
X100477136Y-116646725D01*
X100747578Y-116827429D01*
X100977571Y-117057422D01*
X101158275Y-117327864D01*
X101246289Y-117540349D01*
X101282745Y-117628363D01*
X101346200Y-117947371D01*
X101346200Y-118272629D01*
X101284585Y-118582389D01*
X101282745Y-118591636D01*
X101158275Y-118892136D01*
X100977571Y-119162578D01*
X100747578Y-119392571D01*
X100477136Y-119573275D01*
X100264651Y-119661289D01*
X100176637Y-119697745D01*
X100017133Y-119729472D01*
X99857630Y-119761200D01*
X99532370Y-119761200D01*
X99372867Y-119729472D01*
X99213363Y-119697745D01*
X99125349Y-119661289D01*
X98912864Y-119573275D01*
X98642422Y-119392571D01*
X98412429Y-119162578D01*
X98231725Y-118892136D01*
X98107255Y-118591636D01*
X98105416Y-118582389D01*
X98043800Y-118272629D01*
X98043800Y-117947371D01*
X98107255Y-117628363D01*
X98143711Y-117540349D01*
X98231725Y-117327864D01*
X98412429Y-117057422D01*
X98642422Y-116827429D01*
X98912864Y-116646725D01*
X99125349Y-116558711D01*
X99213363Y-116522255D01*
X99372867Y-116490527D01*
X99532370Y-116458800D01*
X99857630Y-116458800D01*
X100017133Y-116490527D01*
X100017133Y-116490527D01*
G37*
G36*
X82818912Y-116595526D02*
G01*
X82937638Y-116644704D01*
X83105542Y-116714252D01*
X83105543Y-116714253D01*
X83363505Y-116886617D01*
X83582884Y-117105996D01*
X83617262Y-117157447D01*
X83755249Y-117363959D01*
X83796101Y-117462585D01*
X83873975Y-117650589D01*
X83934501Y-117954876D01*
X83934501Y-118265124D01*
X83873975Y-118569411D01*
X83824797Y-118688137D01*
X83755249Y-118856041D01*
X83755248Y-118856042D01*
X83582884Y-119114004D01*
X83363505Y-119333383D01*
X83191140Y-119448553D01*
X83105542Y-119505748D01*
X82942519Y-119573274D01*
X82818912Y-119624474D01*
X82666768Y-119654737D01*
X82514626Y-119685000D01*
X82204376Y-119685000D01*
X82052234Y-119654737D01*
X81900090Y-119624474D01*
X81776483Y-119573274D01*
X81613460Y-119505748D01*
X81527862Y-119448553D01*
X81355497Y-119333383D01*
X81136118Y-119114004D01*
X80963754Y-118856042D01*
X80963753Y-118856041D01*
X80894205Y-118688137D01*
X80845027Y-118569411D01*
X80784501Y-118265124D01*
X80784501Y-117954876D01*
X80845027Y-117650589D01*
X80922901Y-117462585D01*
X80963753Y-117363959D01*
X81101740Y-117157447D01*
X81136118Y-117105996D01*
X81355497Y-116886617D01*
X81613459Y-116714253D01*
X81613460Y-116714252D01*
X81781364Y-116644704D01*
X81900090Y-116595526D01*
X82204376Y-116535000D01*
X82514626Y-116535000D01*
X82818912Y-116595526D01*
X82818912Y-116595526D01*
G37*
G36*
X38849501Y-119685000D02*
G01*
X35699501Y-119685000D01*
X35699501Y-116535000D01*
X38849501Y-116535000D01*
X38849501Y-119685000D01*
X38849501Y-119685000D01*
G37*
G36*
X102455550Y-110651222D02*
G01*
X102564755Y-110672944D01*
X102770493Y-110758164D01*
X102955652Y-110881883D01*
X103113117Y-111039348D01*
X103139199Y-111078383D01*
X103236837Y-111224509D01*
X103261796Y-111284766D01*
X103322056Y-111430245D01*
X103365500Y-111648655D01*
X103365500Y-111871345D01*
X103322056Y-112089755D01*
X103236836Y-112295493D01*
X103113117Y-112480652D01*
X102955652Y-112638117D01*
X102770493Y-112761836D01*
X102564755Y-112847056D01*
X102455550Y-112868778D01*
X102346346Y-112890500D01*
X102123654Y-112890500D01*
X102014450Y-112868778D01*
X101905245Y-112847056D01*
X101699507Y-112761836D01*
X101514348Y-112638117D01*
X101356883Y-112480652D01*
X101233164Y-112295493D01*
X101147944Y-112089755D01*
X101104500Y-111871345D01*
X101104500Y-111648655D01*
X101147944Y-111430245D01*
X101208204Y-111284766D01*
X101233163Y-111224509D01*
X101330801Y-111078383D01*
X101356883Y-111039348D01*
X101514348Y-110881883D01*
X101699507Y-110758164D01*
X101905245Y-110672944D01*
X102014450Y-110651222D01*
X102123654Y-110629500D01*
X102346346Y-110629500D01*
X102455550Y-110651222D01*
X102455550Y-110651222D01*
G37*
G36*
X99915550Y-110651222D02*
G01*
X100024755Y-110672944D01*
X100230493Y-110758164D01*
X100415652Y-110881883D01*
X100573117Y-111039348D01*
X100599199Y-111078383D01*
X100696837Y-111224509D01*
X100721796Y-111284766D01*
X100782056Y-111430245D01*
X100825500Y-111648655D01*
X100825500Y-111871345D01*
X100782056Y-112089755D01*
X100696836Y-112295493D01*
X100573117Y-112480652D01*
X100415652Y-112638117D01*
X100230493Y-112761836D01*
X100024755Y-112847056D01*
X99915550Y-112868778D01*
X99806346Y-112890500D01*
X99583654Y-112890500D01*
X99474450Y-112868778D01*
X99365245Y-112847056D01*
X99159507Y-112761836D01*
X98974348Y-112638117D01*
X98816883Y-112480652D01*
X98693164Y-112295493D01*
X98607944Y-112089755D01*
X98564500Y-111871345D01*
X98564500Y-111648655D01*
X98607944Y-111430245D01*
X98668204Y-111284766D01*
X98693163Y-111224509D01*
X98790801Y-111078383D01*
X98816883Y-111039348D01*
X98974348Y-110881883D01*
X99159507Y-110758164D01*
X99365245Y-110672944D01*
X99474450Y-110651222D01*
X99583654Y-110629500D01*
X99806346Y-110629500D01*
X99915550Y-110651222D01*
X99915550Y-110651222D01*
G37*
G36*
X97375550Y-110651222D02*
G01*
X97484755Y-110672944D01*
X97690493Y-110758164D01*
X97875652Y-110881883D01*
X98033117Y-111039348D01*
X98059199Y-111078383D01*
X98156837Y-111224509D01*
X98181796Y-111284766D01*
X98242056Y-111430245D01*
X98285500Y-111648655D01*
X98285500Y-111871345D01*
X98242056Y-112089755D01*
X98156836Y-112295493D01*
X98033117Y-112480652D01*
X97875652Y-112638117D01*
X97690493Y-112761836D01*
X97484755Y-112847056D01*
X97375550Y-112868778D01*
X97266346Y-112890500D01*
X97043654Y-112890500D01*
X96934450Y-112868778D01*
X96825245Y-112847056D01*
X96619507Y-112761836D01*
X96434348Y-112638117D01*
X96276883Y-112480652D01*
X96153164Y-112295493D01*
X96067944Y-112089755D01*
X96024500Y-111871345D01*
X96024500Y-111648655D01*
X96067944Y-111430245D01*
X96128204Y-111284766D01*
X96153163Y-111224509D01*
X96250801Y-111078383D01*
X96276883Y-111039348D01*
X96434348Y-110881883D01*
X96619507Y-110758164D01*
X96825245Y-110672944D01*
X96934450Y-110651222D01*
X97043654Y-110629500D01*
X97266346Y-110629500D01*
X97375550Y-110651222D01*
X97375550Y-110651222D01*
G37*
G36*
X82666768Y-108310263D02*
G01*
X82818912Y-108340526D01*
X82937638Y-108389704D01*
X83105542Y-108459252D01*
X83105543Y-108459253D01*
X83363505Y-108631617D01*
X83582884Y-108850996D01*
X83698054Y-109023361D01*
X83755249Y-109108959D01*
X83873975Y-109395590D01*
X83934501Y-109699875D01*
X83934501Y-110010125D01*
X83873975Y-110314410D01*
X83755249Y-110601041D01*
X83755248Y-110601042D01*
X83582884Y-110859004D01*
X83363505Y-111078383D01*
X83191140Y-111193553D01*
X83105542Y-111250748D01*
X82937638Y-111320296D01*
X82818912Y-111369474D01*
X82514626Y-111430000D01*
X82204376Y-111430000D01*
X81900090Y-111369474D01*
X81781364Y-111320296D01*
X81613460Y-111250748D01*
X81527862Y-111193553D01*
X81355497Y-111078383D01*
X81136118Y-110859004D01*
X80963754Y-110601042D01*
X80963753Y-110601041D01*
X80845027Y-110314410D01*
X80784501Y-110010125D01*
X80784501Y-109699875D01*
X80845027Y-109395590D01*
X80963753Y-109108959D01*
X81020948Y-109023361D01*
X81136118Y-108850996D01*
X81355497Y-108631617D01*
X81613459Y-108459253D01*
X81613460Y-108459252D01*
X81781364Y-108389704D01*
X81900090Y-108340526D01*
X82052234Y-108310263D01*
X82204376Y-108280000D01*
X82514626Y-108280000D01*
X82666768Y-108310263D01*
X82666768Y-108310263D01*
G37*
G36*
X127320345Y-103223442D02*
G01*
X127410548Y-103232326D01*
X127584157Y-103284990D01*
X127744156Y-103370511D01*
X127787729Y-103406271D01*
X127884397Y-103485603D01*
X127963729Y-103582271D01*
X127999489Y-103625844D01*
X128085010Y-103785843D01*
X128137674Y-103959452D01*
X128155456Y-104140000D01*
X128137674Y-104320548D01*
X128085010Y-104494157D01*
X127999489Y-104654156D01*
X127963729Y-104697729D01*
X127884397Y-104794397D01*
X127787729Y-104873729D01*
X127744156Y-104909489D01*
X127584157Y-104995010D01*
X127410548Y-105047674D01*
X127320345Y-105056558D01*
X127275245Y-105061000D01*
X126724755Y-105061000D01*
X126679655Y-105056558D01*
X126589452Y-105047674D01*
X126415843Y-104995010D01*
X126255844Y-104909489D01*
X126212271Y-104873729D01*
X126115603Y-104794397D01*
X126036271Y-104697729D01*
X126000511Y-104654156D01*
X125914990Y-104494157D01*
X125862326Y-104320548D01*
X125844544Y-104140000D01*
X125862326Y-103959452D01*
X125914990Y-103785843D01*
X126000511Y-103625844D01*
X126036271Y-103582271D01*
X126115603Y-103485603D01*
X126212271Y-103406271D01*
X126255844Y-103370511D01*
X126415843Y-103284990D01*
X126589452Y-103232326D01*
X126679655Y-103223442D01*
X126724755Y-103219000D01*
X127275245Y-103219000D01*
X127320345Y-103223442D01*
X127320345Y-103223442D01*
G37*
G36*
X117056000Y-104951000D02*
G01*
X115354000Y-104951000D01*
X115354000Y-103249000D01*
X117056000Y-103249000D01*
X117056000Y-104951000D01*
X117056000Y-104951000D01*
G37*
G36*
X127320345Y-100683442D02*
G01*
X127410548Y-100692326D01*
X127584157Y-100744990D01*
X127744156Y-100830511D01*
X127762850Y-100845853D01*
X127884397Y-100945603D01*
X127963729Y-101042271D01*
X127999489Y-101085844D01*
X128085010Y-101245843D01*
X128137674Y-101419452D01*
X128155456Y-101600000D01*
X128137674Y-101780548D01*
X128085010Y-101954157D01*
X127999489Y-102114156D01*
X127976244Y-102142480D01*
X127884397Y-102254397D01*
X127787729Y-102333729D01*
X127744156Y-102369489D01*
X127584157Y-102455010D01*
X127410548Y-102507674D01*
X127320345Y-102516558D01*
X127275245Y-102521000D01*
X126724755Y-102521000D01*
X126679655Y-102516558D01*
X126589452Y-102507674D01*
X126415843Y-102455010D01*
X126255844Y-102369489D01*
X126212271Y-102333729D01*
X126115603Y-102254397D01*
X126023756Y-102142480D01*
X126000511Y-102114156D01*
X125914990Y-101954157D01*
X125862326Y-101780548D01*
X125844544Y-101600000D01*
X125862326Y-101419452D01*
X125914990Y-101245843D01*
X126000511Y-101085844D01*
X126036271Y-101042271D01*
X126115603Y-100945603D01*
X126237150Y-100845853D01*
X126255844Y-100830511D01*
X126415843Y-100744990D01*
X126589452Y-100692326D01*
X126679655Y-100683442D01*
X126724755Y-100679000D01*
X127275245Y-100679000D01*
X127320345Y-100683442D01*
X127320345Y-100683442D01*
G37*
G36*
X116453228Y-100781703D02*
G01*
X116608100Y-100845853D01*
X116747481Y-100938985D01*
X116866015Y-101057519D01*
X116959147Y-101196900D01*
X117023297Y-101351772D01*
X117056000Y-101516184D01*
X117056000Y-101683816D01*
X117023297Y-101848228D01*
X116959147Y-102003100D01*
X116866015Y-102142481D01*
X116747481Y-102261015D01*
X116608100Y-102354147D01*
X116453228Y-102418297D01*
X116288816Y-102451000D01*
X116121184Y-102451000D01*
X115956772Y-102418297D01*
X115801900Y-102354147D01*
X115662519Y-102261015D01*
X115543985Y-102142481D01*
X115450853Y-102003100D01*
X115386703Y-101848228D01*
X115354000Y-101683816D01*
X115354000Y-101516184D01*
X115386703Y-101351772D01*
X115450853Y-101196900D01*
X115543985Y-101057519D01*
X115662519Y-100938985D01*
X115801900Y-100845853D01*
X115956772Y-100781703D01*
X116121184Y-100749000D01*
X116288816Y-100749000D01*
X116453228Y-100781703D01*
X116453228Y-100781703D01*
G37*
G36*
X127320345Y-98143442D02*
G01*
X127410548Y-98152326D01*
X127584157Y-98204990D01*
X127744156Y-98290511D01*
X127787729Y-98326271D01*
X127884397Y-98405603D01*
X127963729Y-98502271D01*
X127999489Y-98545844D01*
X128085010Y-98705843D01*
X128137674Y-98879452D01*
X128155456Y-99060000D01*
X128137674Y-99240548D01*
X128085010Y-99414157D01*
X127999489Y-99574156D01*
X127963729Y-99617729D01*
X127884397Y-99714397D01*
X127787729Y-99793729D01*
X127744156Y-99829489D01*
X127584157Y-99915010D01*
X127410548Y-99967674D01*
X127320345Y-99976558D01*
X127275245Y-99981000D01*
X126724755Y-99981000D01*
X126679655Y-99976558D01*
X126589452Y-99967674D01*
X126415843Y-99915010D01*
X126255844Y-99829489D01*
X126212271Y-99793729D01*
X126115603Y-99714397D01*
X126036271Y-99617729D01*
X126000511Y-99574156D01*
X125914990Y-99414157D01*
X125862326Y-99240548D01*
X125844544Y-99060000D01*
X125862326Y-98879452D01*
X125914990Y-98705843D01*
X126000511Y-98545844D01*
X126036271Y-98502271D01*
X126115603Y-98405603D01*
X126212271Y-98326271D01*
X126255844Y-98290511D01*
X126415843Y-98204990D01*
X126589452Y-98152326D01*
X126679655Y-98143442D01*
X126724755Y-98139000D01*
X127275245Y-98139000D01*
X127320345Y-98143442D01*
X127320345Y-98143442D01*
G37*
G36*
X38849501Y-98730000D02*
G01*
X35699501Y-98730000D01*
X35699501Y-95580000D01*
X38849501Y-95580000D01*
X38849501Y-98730000D01*
X38849501Y-98730000D01*
G37*
G36*
X28856000Y-98706000D02*
G01*
X25754000Y-98706000D01*
X25754000Y-95604000D01*
X28856000Y-95604000D01*
X28856000Y-98706000D01*
X28856000Y-98706000D01*
G37*
G36*
X100017133Y-94900528D02*
G01*
X100176637Y-94932255D01*
X100264651Y-94968711D01*
X100477136Y-95056725D01*
X100747578Y-95237429D01*
X100977571Y-95467422D01*
X101158275Y-95737864D01*
X101176023Y-95780713D01*
X101251947Y-95964009D01*
X101282745Y-96038364D01*
X101346200Y-96357370D01*
X101346200Y-96682630D01*
X101282745Y-97001636D01*
X101158275Y-97302136D01*
X100977571Y-97572578D01*
X100747578Y-97802571D01*
X100477136Y-97983275D01*
X100264651Y-98071289D01*
X100176637Y-98107745D01*
X100019508Y-98139000D01*
X99857630Y-98171200D01*
X99532370Y-98171200D01*
X99370492Y-98139000D01*
X99213363Y-98107745D01*
X99125349Y-98071289D01*
X98912864Y-97983275D01*
X98642422Y-97802571D01*
X98412429Y-97572578D01*
X98231725Y-97302136D01*
X98107255Y-97001636D01*
X98043800Y-96682630D01*
X98043800Y-96357370D01*
X98107255Y-96038364D01*
X98138054Y-95964009D01*
X98213977Y-95780713D01*
X98231725Y-95737864D01*
X98412429Y-95467422D01*
X98642422Y-95237429D01*
X98912864Y-95056725D01*
X99125349Y-94968711D01*
X99213363Y-94932255D01*
X99372867Y-94900528D01*
X99532370Y-94868800D01*
X99857630Y-94868800D01*
X100017133Y-94900528D01*
X100017133Y-94900528D01*
G37*
G36*
X128009561Y-95602966D02*
G01*
X128042383Y-95612923D01*
X128072632Y-95629092D01*
X128099148Y-95650852D01*
X128120908Y-95677368D01*
X128137077Y-95707617D01*
X128147034Y-95740439D01*
X128151000Y-95780713D01*
X128151000Y-97259287D01*
X128147034Y-97299561D01*
X128137077Y-97332383D01*
X128120908Y-97362632D01*
X128099148Y-97389148D01*
X128072632Y-97410908D01*
X128042383Y-97427077D01*
X128009561Y-97437034D01*
X127969287Y-97441000D01*
X126030713Y-97441000D01*
X125990439Y-97437034D01*
X125957617Y-97427077D01*
X125927368Y-97410908D01*
X125900852Y-97389148D01*
X125879092Y-97362632D01*
X125862923Y-97332383D01*
X125852966Y-97299561D01*
X125849000Y-97259287D01*
X125849000Y-95780713D01*
X125852966Y-95740439D01*
X125862923Y-95707617D01*
X125879092Y-95677368D01*
X125900852Y-95650852D01*
X125927368Y-95629092D01*
X125957617Y-95612923D01*
X125990439Y-95602966D01*
X126030713Y-95599000D01*
X127969287Y-95599000D01*
X128009561Y-95602966D01*
X128009561Y-95602966D01*
G37*
G36*
X120277199Y-94064954D02*
G01*
X120289450Y-94065556D01*
X120307869Y-94065556D01*
X120330149Y-94067750D01*
X120414233Y-94084476D01*
X120435660Y-94090976D01*
X120514858Y-94123780D01*
X120520303Y-94126691D01*
X120520309Y-94126693D01*
X120529169Y-94131429D01*
X120529173Y-94131432D01*
X120534614Y-94134340D01*
X120605899Y-94181971D01*
X120623204Y-94196172D01*
X120683828Y-94256796D01*
X120698029Y-94274101D01*
X120745660Y-94345386D01*
X120748568Y-94350827D01*
X120748571Y-94350831D01*
X120753307Y-94359691D01*
X120753309Y-94359697D01*
X120756220Y-94365142D01*
X120789024Y-94444340D01*
X120795524Y-94465767D01*
X120812250Y-94549851D01*
X120814444Y-94572131D01*
X120814444Y-94590550D01*
X120815046Y-94602801D01*
X120816852Y-94621139D01*
X120816852Y-95108860D01*
X120815263Y-95124999D01*
X120812348Y-95134608D01*
X120807610Y-95143472D01*
X120801237Y-95151237D01*
X120788794Y-95161448D01*
X120778425Y-95168378D01*
X120761098Y-95185705D01*
X120747485Y-95206080D01*
X120738109Y-95228720D01*
X120733329Y-95252753D01*
X120733330Y-95277257D01*
X120738112Y-95301290D01*
X120747490Y-95323929D01*
X120761105Y-95344302D01*
X120778432Y-95361629D01*
X120788802Y-95368558D01*
X120801237Y-95378763D01*
X120807610Y-95386528D01*
X120812348Y-95395392D01*
X120815263Y-95405001D01*
X120816852Y-95421140D01*
X120816852Y-95908862D01*
X120815046Y-95927199D01*
X120814444Y-95939450D01*
X120814444Y-95957869D01*
X120812250Y-95980149D01*
X120795524Y-96064233D01*
X120789024Y-96085660D01*
X120756220Y-96164858D01*
X120753309Y-96170303D01*
X120753307Y-96170309D01*
X120748571Y-96179169D01*
X120748568Y-96179173D01*
X120745660Y-96184614D01*
X120698029Y-96255899D01*
X120683828Y-96273204D01*
X120623204Y-96333828D01*
X120605899Y-96348029D01*
X120534614Y-96395660D01*
X120529173Y-96398568D01*
X120529169Y-96398571D01*
X120520309Y-96403307D01*
X120520303Y-96403309D01*
X120514858Y-96406220D01*
X120435660Y-96439024D01*
X120414233Y-96445524D01*
X120330149Y-96462250D01*
X120307869Y-96464444D01*
X120289450Y-96464444D01*
X120277199Y-96465046D01*
X120258862Y-96466852D01*
X119771138Y-96466852D01*
X119752801Y-96465046D01*
X119740550Y-96464444D01*
X119722131Y-96464444D01*
X119699851Y-96462250D01*
X119615767Y-96445524D01*
X119594340Y-96439024D01*
X119515142Y-96406220D01*
X119509697Y-96403309D01*
X119509691Y-96403307D01*
X119500831Y-96398571D01*
X119500827Y-96398568D01*
X119495386Y-96395660D01*
X119424101Y-96348029D01*
X119406796Y-96333828D01*
X119346172Y-96273204D01*
X119331971Y-96255899D01*
X119284340Y-96184614D01*
X119281432Y-96179173D01*
X119281429Y-96179169D01*
X119276693Y-96170309D01*
X119276691Y-96170303D01*
X119273780Y-96164858D01*
X119240976Y-96085660D01*
X119234476Y-96064233D01*
X119217750Y-95980149D01*
X119215556Y-95957869D01*
X119215556Y-95939450D01*
X119214954Y-95927199D01*
X119213148Y-95908862D01*
X119213148Y-95421140D01*
X119214737Y-95405001D01*
X119217652Y-95395392D01*
X119222390Y-95386528D01*
X119228763Y-95378763D01*
X119241206Y-95368552D01*
X119251575Y-95361622D01*
X119268902Y-95344295D01*
X119282515Y-95323920D01*
X119291891Y-95301280D01*
X119296671Y-95277247D01*
X119296670Y-95252743D01*
X119291888Y-95228710D01*
X119282510Y-95206071D01*
X119268895Y-95185698D01*
X119251568Y-95168371D01*
X119241198Y-95161442D01*
X119228763Y-95151237D01*
X119222390Y-95143472D01*
X119217652Y-95134608D01*
X119214737Y-95124999D01*
X119213148Y-95108860D01*
X119213148Y-94621139D01*
X119214954Y-94602801D01*
X119215556Y-94590550D01*
X119215556Y-94572131D01*
X119217750Y-94549851D01*
X119234476Y-94465767D01*
X119240976Y-94444340D01*
X119273780Y-94365142D01*
X119276691Y-94359697D01*
X119276693Y-94359691D01*
X119281429Y-94350831D01*
X119281432Y-94350827D01*
X119284340Y-94345386D01*
X119331971Y-94274101D01*
X119346172Y-94256796D01*
X119406796Y-94196172D01*
X119424101Y-94181971D01*
X119495386Y-94134340D01*
X119500827Y-94131432D01*
X119500831Y-94131429D01*
X119509691Y-94126693D01*
X119509697Y-94126691D01*
X119515142Y-94123780D01*
X119594340Y-94090976D01*
X119615767Y-94084476D01*
X119699851Y-94067750D01*
X119722131Y-94065556D01*
X119740550Y-94065556D01*
X119752801Y-94064954D01*
X119771139Y-94063148D01*
X120258861Y-94063148D01*
X120277199Y-94064954D01*
X120277199Y-94064954D01*
G37*
G36*
X27607585Y-90553802D02*
G01*
X27757410Y-90583604D01*
X28039674Y-90700521D01*
X28293705Y-90870259D01*
X28509741Y-91086295D01*
X28679479Y-91340326D01*
X28796396Y-91622590D01*
X28856000Y-91922240D01*
X28856000Y-92227760D01*
X28796396Y-92527410D01*
X28679479Y-92809674D01*
X28509741Y-93063705D01*
X28293705Y-93279741D01*
X28039674Y-93449479D01*
X27757410Y-93566396D01*
X27607585Y-93596198D01*
X27457761Y-93626000D01*
X27152239Y-93626000D01*
X27002415Y-93596198D01*
X26852590Y-93566396D01*
X26570326Y-93449479D01*
X26316295Y-93279741D01*
X26100259Y-93063705D01*
X25930521Y-92809674D01*
X25813604Y-92527410D01*
X25754000Y-92227760D01*
X25754000Y-91922240D01*
X25813604Y-91622590D01*
X25930521Y-91340326D01*
X26100259Y-91086295D01*
X26316295Y-90870259D01*
X26570326Y-90700521D01*
X26852590Y-90583604D01*
X27002415Y-90553802D01*
X27152239Y-90524000D01*
X27457761Y-90524000D01*
X27607585Y-90553802D01*
X27607585Y-90553802D01*
G37*
G36*
X99994372Y-88546000D02*
G01*
X100176637Y-88582255D01*
X100264651Y-88618711D01*
X100477136Y-88706725D01*
X100747578Y-88887429D01*
X100977571Y-89117422D01*
X101158275Y-89387864D01*
X101208444Y-89508985D01*
X101282745Y-89688363D01*
X101346200Y-90007371D01*
X101346200Y-90332629D01*
X101282745Y-90651637D01*
X101246289Y-90739651D01*
X101158275Y-90952136D01*
X100977571Y-91222578D01*
X100747578Y-91452571D01*
X100477136Y-91633275D01*
X100264651Y-91721289D01*
X100176637Y-91757745D01*
X100017133Y-91789473D01*
X99857630Y-91821200D01*
X99532370Y-91821200D01*
X99372867Y-91789473D01*
X99213363Y-91757745D01*
X99125349Y-91721289D01*
X98912864Y-91633275D01*
X98642422Y-91452571D01*
X98412429Y-91222578D01*
X98231725Y-90952136D01*
X98143711Y-90739651D01*
X98107255Y-90651637D01*
X98043800Y-90332629D01*
X98043800Y-90007371D01*
X98107255Y-89688363D01*
X98181556Y-89508985D01*
X98231725Y-89387864D01*
X98412429Y-89117422D01*
X98642422Y-88887429D01*
X98912864Y-88706725D01*
X99125349Y-88618711D01*
X99213363Y-88582255D01*
X99395628Y-88546000D01*
X99532370Y-88518800D01*
X99857630Y-88518800D01*
X99994372Y-88546000D01*
X99994372Y-88546000D01*
G37*
G36*
X114556000Y-91021000D02*
G01*
X112854000Y-91021000D01*
X112854000Y-89319000D01*
X114556000Y-89319000D01*
X114556000Y-91021000D01*
X114556000Y-91021000D01*
G37*
G36*
X116453228Y-89351703D02*
G01*
X116608100Y-89415853D01*
X116747481Y-89508985D01*
X116866015Y-89627519D01*
X116959147Y-89766900D01*
X117023297Y-89921772D01*
X117056000Y-90086184D01*
X117056000Y-90253816D01*
X117023297Y-90418228D01*
X116959147Y-90573100D01*
X116866015Y-90712481D01*
X116747481Y-90831015D01*
X116608100Y-90924147D01*
X116453228Y-90988297D01*
X116288816Y-91021000D01*
X116121184Y-91021000D01*
X115956772Y-90988297D01*
X115801900Y-90924147D01*
X115662519Y-90831015D01*
X115543985Y-90712481D01*
X115450853Y-90573100D01*
X115386703Y-90418228D01*
X115354000Y-90253816D01*
X115354000Y-90086184D01*
X115386703Y-89921772D01*
X115450853Y-89766900D01*
X115543985Y-89627519D01*
X115662519Y-89508985D01*
X115801900Y-89415853D01*
X115956772Y-89351703D01*
X116121184Y-89319000D01*
X116288816Y-89319000D01*
X116453228Y-89351703D01*
X116453228Y-89351703D01*
G37*
G36*
X127801823Y-88061313D02*
G01*
X127962242Y-88109976D01*
X128029361Y-88145852D01*
X128110078Y-88188996D01*
X128239659Y-88295341D01*
X128346004Y-88424922D01*
X128346005Y-88424924D01*
X128425024Y-88572758D01*
X128473687Y-88733177D01*
X128490117Y-88900000D01*
X128473687Y-89066823D01*
X128425024Y-89227242D01*
X128384477Y-89303100D01*
X128346004Y-89375078D01*
X128239659Y-89504659D01*
X128110078Y-89611004D01*
X128110076Y-89611005D01*
X127962242Y-89690024D01*
X127801823Y-89738687D01*
X127676804Y-89751000D01*
X127593196Y-89751000D01*
X127468177Y-89738687D01*
X127307758Y-89690024D01*
X127159924Y-89611005D01*
X127159922Y-89611004D01*
X127030341Y-89504659D01*
X126923996Y-89375078D01*
X126885523Y-89303100D01*
X126844976Y-89227242D01*
X126796313Y-89066823D01*
X126779883Y-88900000D01*
X126796313Y-88733177D01*
X126844976Y-88572758D01*
X126923995Y-88424924D01*
X126923996Y-88424922D01*
X127030341Y-88295341D01*
X127159922Y-88188996D01*
X127240639Y-88145852D01*
X127307758Y-88109976D01*
X127468177Y-88061313D01*
X127593196Y-88049000D01*
X127676804Y-88049000D01*
X127801823Y-88061313D01*
X127801823Y-88061313D01*
G37*
G36*
X120263228Y-88081703D02*
G01*
X120418100Y-88145853D01*
X120557481Y-88238985D01*
X120676015Y-88357519D01*
X120769147Y-88496900D01*
X120833297Y-88651772D01*
X120866000Y-88816184D01*
X120866000Y-88983816D01*
X120833297Y-89148228D01*
X120769147Y-89303100D01*
X120676015Y-89442481D01*
X120557481Y-89561015D01*
X120418100Y-89654147D01*
X120263228Y-89718297D01*
X120098816Y-89751000D01*
X119931184Y-89751000D01*
X119766772Y-89718297D01*
X119611900Y-89654147D01*
X119472519Y-89561015D01*
X119353985Y-89442481D01*
X119260853Y-89303100D01*
X119196703Y-89148228D01*
X119164000Y-88983816D01*
X119164000Y-88816184D01*
X119196703Y-88651772D01*
X119260853Y-88496900D01*
X119353985Y-88357519D01*
X119472519Y-88238985D01*
X119611900Y-88145853D01*
X119766772Y-88081703D01*
X119931184Y-88049000D01*
X120098816Y-88049000D01*
X120263228Y-88081703D01*
X120263228Y-88081703D01*
G37*
G36*
X27607585Y-85473802D02*
G01*
X27757410Y-85503604D01*
X28039674Y-85620521D01*
X28293705Y-85790259D01*
X28509741Y-86006295D01*
X28679479Y-86260326D01*
X28796396Y-86542590D01*
X28856000Y-86842240D01*
X28856000Y-87147760D01*
X28796396Y-87447410D01*
X28679479Y-87729674D01*
X28509741Y-87983705D01*
X28293705Y-88199741D01*
X28039674Y-88369479D01*
X27757410Y-88486396D01*
X27607585Y-88516198D01*
X27457761Y-88546000D01*
X27152239Y-88546000D01*
X27002415Y-88516198D01*
X26852590Y-88486396D01*
X26570326Y-88369479D01*
X26316295Y-88199741D01*
X26100259Y-87983705D01*
X25930521Y-87729674D01*
X25813604Y-87447410D01*
X25754000Y-87147760D01*
X25754000Y-86842240D01*
X25813604Y-86542590D01*
X25930521Y-86260326D01*
X26100259Y-86006295D01*
X26316295Y-85790259D01*
X26570326Y-85620521D01*
X26852590Y-85503604D01*
X27002415Y-85473802D01*
X27152239Y-85444000D01*
X27457761Y-85444000D01*
X27607585Y-85473802D01*
X27607585Y-85473802D01*
G37*
G36*
X77210256Y-82846298D02*
G01*
X77316579Y-82867447D01*
X77617042Y-82991903D01*
X77887451Y-83172585D01*
X78117415Y-83402549D01*
X78268802Y-83629115D01*
X78298098Y-83672960D01*
X78319249Y-83724024D01*
X78422553Y-83973421D01*
X78486000Y-84292391D01*
X78486000Y-84617609D01*
X78422553Y-84936579D01*
X78298097Y-85237042D01*
X78117415Y-85507451D01*
X77887451Y-85737415D01*
X77617042Y-85918097D01*
X77617041Y-85918098D01*
X77617040Y-85918098D01*
X77581628Y-85932766D01*
X77316579Y-86042553D01*
X77210256Y-86063702D01*
X76997611Y-86106000D01*
X76672389Y-86106000D01*
X76459744Y-86063702D01*
X76353421Y-86042553D01*
X76088372Y-85932766D01*
X76052960Y-85918098D01*
X76052959Y-85918098D01*
X76052958Y-85918097D01*
X75782549Y-85737415D01*
X75552585Y-85507451D01*
X75371903Y-85237042D01*
X75247447Y-84936579D01*
X75184000Y-84617609D01*
X75184000Y-84292391D01*
X75247447Y-83973421D01*
X75350751Y-83724024D01*
X75371902Y-83672960D01*
X75401198Y-83629115D01*
X75552585Y-83402549D01*
X75782549Y-83172585D01*
X76052958Y-82991903D01*
X76353421Y-82867447D01*
X76459744Y-82846298D01*
X76672389Y-82804000D01*
X76997611Y-82804000D01*
X77210256Y-82846298D01*
X77210256Y-82846298D01*
G37*
G36*
X127277395Y-84175546D02*
G01*
X127450466Y-84247234D01*
X127450467Y-84247235D01*
X127606227Y-84351310D01*
X127738690Y-84483773D01*
X127738691Y-84483775D01*
X127842766Y-84639534D01*
X127914454Y-84812605D01*
X127951000Y-84996333D01*
X127951000Y-85183667D01*
X127914454Y-85367395D01*
X127842766Y-85540466D01*
X127842765Y-85540467D01*
X127738690Y-85696227D01*
X127606227Y-85828690D01*
X127527818Y-85881081D01*
X127450466Y-85932766D01*
X127277395Y-86004454D01*
X127093667Y-86041000D01*
X126906333Y-86041000D01*
X126722605Y-86004454D01*
X126549534Y-85932766D01*
X126472182Y-85881081D01*
X126393773Y-85828690D01*
X126261310Y-85696227D01*
X126157235Y-85540467D01*
X126157234Y-85540466D01*
X126085546Y-85367395D01*
X126049000Y-85183667D01*
X126049000Y-84996333D01*
X126085546Y-84812605D01*
X126157234Y-84639534D01*
X126261309Y-84483775D01*
X126261310Y-84483773D01*
X126393773Y-84351310D01*
X126549533Y-84247235D01*
X126549534Y-84247234D01*
X126722605Y-84175546D01*
X126906333Y-84139000D01*
X127093667Y-84139000D01*
X127277395Y-84175546D01*
X127277395Y-84175546D01*
G37*
G36*
X116467199Y-81349954D02*
G01*
X116479450Y-81350556D01*
X116497869Y-81350556D01*
X116520149Y-81352750D01*
X116604233Y-81369476D01*
X116625660Y-81375976D01*
X116704858Y-81408780D01*
X116710303Y-81411691D01*
X116710309Y-81411693D01*
X116719169Y-81416429D01*
X116719173Y-81416432D01*
X116724614Y-81419340D01*
X116795899Y-81466971D01*
X116813204Y-81481172D01*
X116873828Y-81541796D01*
X116888029Y-81559101D01*
X116935660Y-81630386D01*
X116938568Y-81635827D01*
X116938571Y-81635831D01*
X116943307Y-81644691D01*
X116943309Y-81644697D01*
X116946220Y-81650142D01*
X116979024Y-81729340D01*
X116985524Y-81750767D01*
X117002250Y-81834851D01*
X117004444Y-81857131D01*
X117004444Y-81875550D01*
X117005046Y-81887801D01*
X117006852Y-81906139D01*
X117006852Y-82393860D01*
X117005263Y-82409999D01*
X117002348Y-82419608D01*
X116997610Y-82428472D01*
X116991237Y-82436237D01*
X116978794Y-82446448D01*
X116968425Y-82453378D01*
X116951098Y-82470705D01*
X116937485Y-82491080D01*
X116928109Y-82513720D01*
X116923329Y-82537753D01*
X116923330Y-82562257D01*
X116928112Y-82586290D01*
X116937490Y-82608929D01*
X116951105Y-82629302D01*
X116968432Y-82646629D01*
X116978802Y-82653558D01*
X116991237Y-82663763D01*
X116997610Y-82671528D01*
X117002348Y-82680392D01*
X117005263Y-82690001D01*
X117006852Y-82706140D01*
X117006852Y-83193862D01*
X117005046Y-83212199D01*
X117004444Y-83224450D01*
X117004444Y-83242869D01*
X117002250Y-83265149D01*
X116985524Y-83349233D01*
X116979024Y-83370660D01*
X116946220Y-83449858D01*
X116943309Y-83455303D01*
X116943307Y-83455309D01*
X116938571Y-83464169D01*
X116938568Y-83464173D01*
X116935660Y-83469614D01*
X116888029Y-83540899D01*
X116873828Y-83558204D01*
X116813204Y-83618828D01*
X116795899Y-83633029D01*
X116724614Y-83680660D01*
X116719173Y-83683568D01*
X116719169Y-83683571D01*
X116710309Y-83688307D01*
X116710303Y-83688309D01*
X116704858Y-83691220D01*
X116625660Y-83724024D01*
X116604233Y-83730524D01*
X116520149Y-83747250D01*
X116497869Y-83749444D01*
X116479450Y-83749444D01*
X116467199Y-83750046D01*
X116448862Y-83751852D01*
X115961138Y-83751852D01*
X115942801Y-83750046D01*
X115930550Y-83749444D01*
X115912131Y-83749444D01*
X115889851Y-83747250D01*
X115805767Y-83730524D01*
X115784340Y-83724024D01*
X115705142Y-83691220D01*
X115699697Y-83688309D01*
X115699691Y-83688307D01*
X115690831Y-83683571D01*
X115690827Y-83683568D01*
X115685386Y-83680660D01*
X115614101Y-83633029D01*
X115596796Y-83618828D01*
X115536172Y-83558204D01*
X115521971Y-83540899D01*
X115474340Y-83469614D01*
X115471432Y-83464173D01*
X115471429Y-83464169D01*
X115466693Y-83455309D01*
X115466691Y-83455303D01*
X115463780Y-83449858D01*
X115430976Y-83370660D01*
X115424476Y-83349233D01*
X115407750Y-83265149D01*
X115405556Y-83242869D01*
X115405556Y-83224450D01*
X115404954Y-83212199D01*
X115403148Y-83193862D01*
X115403148Y-82706140D01*
X115404737Y-82690001D01*
X115407652Y-82680392D01*
X115412390Y-82671528D01*
X115418763Y-82663763D01*
X115431206Y-82653552D01*
X115441575Y-82646622D01*
X115458902Y-82629295D01*
X115472515Y-82608920D01*
X115481891Y-82586280D01*
X115486671Y-82562247D01*
X115486670Y-82537743D01*
X115481888Y-82513710D01*
X115472510Y-82491071D01*
X115458895Y-82470698D01*
X115441568Y-82453371D01*
X115431198Y-82446442D01*
X115418763Y-82436237D01*
X115412390Y-82428472D01*
X115407652Y-82419608D01*
X115404737Y-82409999D01*
X115403148Y-82393860D01*
X115403148Y-81906139D01*
X115404954Y-81887801D01*
X115405556Y-81875550D01*
X115405556Y-81857131D01*
X115407750Y-81834851D01*
X115424476Y-81750767D01*
X115430976Y-81729340D01*
X115463780Y-81650142D01*
X115466691Y-81644697D01*
X115466693Y-81644691D01*
X115471429Y-81635831D01*
X115471432Y-81635827D01*
X115474340Y-81630386D01*
X115521971Y-81559101D01*
X115536172Y-81541796D01*
X115596796Y-81481172D01*
X115614101Y-81466971D01*
X115685386Y-81419340D01*
X115690827Y-81416432D01*
X115690831Y-81416429D01*
X115699691Y-81411693D01*
X115699697Y-81411691D01*
X115705142Y-81408780D01*
X115784340Y-81375976D01*
X115805767Y-81369476D01*
X115889851Y-81352750D01*
X115912131Y-81350556D01*
X115930550Y-81350556D01*
X115942801Y-81349954D01*
X115961139Y-81348148D01*
X116448861Y-81348148D01*
X116467199Y-81349954D01*
X116467199Y-81349954D01*
G37*
G36*
X127951000Y-83501000D02*
G01*
X126049000Y-83501000D01*
X126049000Y-81599000D01*
X127951000Y-81599000D01*
X127951000Y-83501000D01*
X127951000Y-83501000D01*
G37*
G36*
X27594504Y-80391200D02*
G01*
X27757410Y-80423604D01*
X28039674Y-80540521D01*
X28293705Y-80710259D01*
X28509741Y-80926295D01*
X28679479Y-81180326D01*
X28796396Y-81462590D01*
X28856000Y-81762240D01*
X28856000Y-82067760D01*
X28796396Y-82367410D01*
X28679479Y-82649674D01*
X28509741Y-82903705D01*
X28293705Y-83119741D01*
X28039674Y-83289479D01*
X27757410Y-83406396D01*
X27607585Y-83436198D01*
X27457761Y-83466000D01*
X27152239Y-83466000D01*
X27002415Y-83436198D01*
X26852590Y-83406396D01*
X26570326Y-83289479D01*
X26316295Y-83119741D01*
X26100259Y-82903705D01*
X25930521Y-82649674D01*
X25813604Y-82367410D01*
X25754000Y-82067760D01*
X25754000Y-81762240D01*
X25813604Y-81462590D01*
X25930521Y-81180326D01*
X26100259Y-80926295D01*
X26316295Y-80710259D01*
X26570326Y-80540521D01*
X26852590Y-80423604D01*
X27015496Y-80391200D01*
X27152239Y-80364000D01*
X27457761Y-80364000D01*
X27594504Y-80391200D01*
X27594504Y-80391200D01*
G37*
G36*
X100017133Y-77120527D02*
G01*
X100176637Y-77152255D01*
X100253276Y-77184000D01*
X100477136Y-77276725D01*
X100747578Y-77457429D01*
X100977571Y-77687422D01*
X101158275Y-77957864D01*
X101192189Y-78039741D01*
X101262497Y-78209479D01*
X101282745Y-78258364D01*
X101346200Y-78577370D01*
X101346200Y-78902630D01*
X101282745Y-79221636D01*
X101158275Y-79522136D01*
X100977571Y-79792578D01*
X100747578Y-80022571D01*
X100477136Y-80203275D01*
X100264651Y-80291289D01*
X100176637Y-80327745D01*
X100017133Y-80359473D01*
X99857630Y-80391200D01*
X99532370Y-80391200D01*
X99372867Y-80359473D01*
X99213363Y-80327745D01*
X99125349Y-80291289D01*
X98912864Y-80203275D01*
X98642422Y-80022571D01*
X98412429Y-79792578D01*
X98231725Y-79522136D01*
X98107255Y-79221636D01*
X98043800Y-78902630D01*
X98043800Y-78577370D01*
X98107255Y-78258364D01*
X98127504Y-78209479D01*
X98197811Y-78039741D01*
X98231725Y-77957864D01*
X98412429Y-77687422D01*
X98642422Y-77457429D01*
X98912864Y-77276725D01*
X99136724Y-77184000D01*
X99213363Y-77152255D01*
X99372867Y-77120527D01*
X99532370Y-77088800D01*
X99857630Y-77088800D01*
X100017133Y-77120527D01*
X100017133Y-77120527D01*
G37*
G36*
X127320345Y-77188442D02*
G01*
X127410548Y-77197326D01*
X127584157Y-77249990D01*
X127744156Y-77335511D01*
X127787729Y-77371271D01*
X127884397Y-77450603D01*
X127963729Y-77547271D01*
X127999489Y-77590844D01*
X128085010Y-77750843D01*
X128137674Y-77924452D01*
X128155456Y-78105000D01*
X128137674Y-78285548D01*
X128085010Y-78459157D01*
X127999489Y-78619156D01*
X127963729Y-78662729D01*
X127884397Y-78759397D01*
X127787729Y-78838729D01*
X127744156Y-78874489D01*
X127584157Y-78960010D01*
X127410548Y-79012674D01*
X127320345Y-79021558D01*
X127275245Y-79026000D01*
X126724755Y-79026000D01*
X126679655Y-79021558D01*
X126589452Y-79012674D01*
X126415843Y-78960010D01*
X126255844Y-78874489D01*
X126212271Y-78838729D01*
X126115603Y-78759397D01*
X126036271Y-78662729D01*
X126000511Y-78619156D01*
X125914990Y-78459157D01*
X125862326Y-78285548D01*
X125844544Y-78105000D01*
X125862326Y-77924452D01*
X125914990Y-77750843D01*
X126000511Y-77590844D01*
X126036271Y-77547271D01*
X126115603Y-77450603D01*
X126212271Y-77371271D01*
X126255844Y-77335511D01*
X126415843Y-77249990D01*
X126589452Y-77197326D01*
X126679655Y-77188442D01*
X126724755Y-77184000D01*
X127275245Y-77184000D01*
X127320345Y-77188442D01*
X127320345Y-77188442D01*
G37*
G36*
X27607585Y-75313802D02*
G01*
X27757410Y-75343604D01*
X28039674Y-75460521D01*
X28293705Y-75630259D01*
X28509741Y-75846295D01*
X28679479Y-76100326D01*
X28796396Y-76382590D01*
X28856000Y-76682240D01*
X28856000Y-76987760D01*
X28796396Y-77287410D01*
X28679479Y-77569674D01*
X28509741Y-77823705D01*
X28293705Y-78039741D01*
X28039674Y-78209479D01*
X27757410Y-78326396D01*
X27607585Y-78356198D01*
X27457761Y-78386000D01*
X27152239Y-78386000D01*
X27002415Y-78356198D01*
X26852590Y-78326396D01*
X26570326Y-78209479D01*
X26316295Y-78039741D01*
X26100259Y-77823705D01*
X25930521Y-77569674D01*
X25813604Y-77287410D01*
X25754000Y-76987760D01*
X25754000Y-76682240D01*
X25813604Y-76382590D01*
X25930521Y-76100326D01*
X26100259Y-75846295D01*
X26316295Y-75630259D01*
X26570326Y-75460521D01*
X26852590Y-75343604D01*
X27002415Y-75313802D01*
X27152239Y-75284000D01*
X27457761Y-75284000D01*
X27607585Y-75313802D01*
X27607585Y-75313802D01*
G37*
G36*
X127320345Y-74648442D02*
G01*
X127410548Y-74657326D01*
X127584157Y-74709990D01*
X127744156Y-74795511D01*
X127787729Y-74831271D01*
X127884397Y-74910603D01*
X127936519Y-74974115D01*
X127999489Y-75050844D01*
X128085010Y-75210843D01*
X128137674Y-75384452D01*
X128155456Y-75565000D01*
X128137674Y-75745548D01*
X128085010Y-75919157D01*
X127999489Y-76079156D01*
X127982115Y-76100326D01*
X127884397Y-76219397D01*
X127787729Y-76298729D01*
X127744156Y-76334489D01*
X127584157Y-76420010D01*
X127410548Y-76472674D01*
X127320345Y-76481558D01*
X127275245Y-76486000D01*
X126724755Y-76486000D01*
X126679655Y-76481558D01*
X126589452Y-76472674D01*
X126415843Y-76420010D01*
X126255844Y-76334489D01*
X126212271Y-76298729D01*
X126115603Y-76219397D01*
X126017885Y-76100326D01*
X126000511Y-76079156D01*
X125914990Y-75919157D01*
X125862326Y-75745548D01*
X125844544Y-75565000D01*
X125862326Y-75384452D01*
X125914990Y-75210843D01*
X126000511Y-75050844D01*
X126063481Y-74974115D01*
X126115603Y-74910603D01*
X126212271Y-74831271D01*
X126255844Y-74795511D01*
X126415843Y-74709990D01*
X126589452Y-74657326D01*
X126679655Y-74648442D01*
X126724755Y-74644000D01*
X127275245Y-74644000D01*
X127320345Y-74648442D01*
X127320345Y-74648442D01*
G37*
G36*
X117334999Y-73494737D02*
G01*
X117344608Y-73497652D01*
X117353472Y-73502390D01*
X117361237Y-73508763D01*
X117371448Y-73521206D01*
X117378378Y-73531575D01*
X117395705Y-73548902D01*
X117416080Y-73562515D01*
X117438720Y-73571891D01*
X117462753Y-73576671D01*
X117487257Y-73576670D01*
X117511290Y-73571888D01*
X117533929Y-73562510D01*
X117554302Y-73548895D01*
X117571629Y-73531568D01*
X117578558Y-73521198D01*
X117588763Y-73508763D01*
X117596528Y-73502390D01*
X117605392Y-73497652D01*
X117615001Y-73494737D01*
X117631140Y-73493148D01*
X118118861Y-73493148D01*
X118137199Y-73494954D01*
X118149450Y-73495556D01*
X118167869Y-73495556D01*
X118190149Y-73497750D01*
X118274233Y-73514476D01*
X118295660Y-73520976D01*
X118374858Y-73553780D01*
X118380303Y-73556691D01*
X118380309Y-73556693D01*
X118389169Y-73561429D01*
X118389173Y-73561432D01*
X118394614Y-73564340D01*
X118465899Y-73611971D01*
X118483204Y-73626172D01*
X118543828Y-73686796D01*
X118558029Y-73704101D01*
X118605660Y-73775386D01*
X118608568Y-73780827D01*
X118608571Y-73780831D01*
X118613307Y-73789691D01*
X118613309Y-73789697D01*
X118616220Y-73795142D01*
X118649024Y-73874340D01*
X118655524Y-73895767D01*
X118672250Y-73979851D01*
X118674444Y-74002131D01*
X118674444Y-74020550D01*
X118675046Y-74032801D01*
X118676852Y-74051139D01*
X118676852Y-74538862D01*
X118675046Y-74557199D01*
X118674444Y-74569450D01*
X118674444Y-74587869D01*
X118672250Y-74610149D01*
X118655524Y-74694233D01*
X118649024Y-74715660D01*
X118616220Y-74794858D01*
X118613309Y-74800303D01*
X118613307Y-74800309D01*
X118608571Y-74809169D01*
X118608568Y-74809173D01*
X118605660Y-74814614D01*
X118558029Y-74885899D01*
X118543828Y-74903204D01*
X118483204Y-74963828D01*
X118465899Y-74978029D01*
X118394614Y-75025660D01*
X118389173Y-75028568D01*
X118389169Y-75028571D01*
X118380309Y-75033307D01*
X118380303Y-75033309D01*
X118374858Y-75036220D01*
X118295660Y-75069024D01*
X118274233Y-75075524D01*
X118190149Y-75092250D01*
X118167869Y-75094444D01*
X118149450Y-75094444D01*
X118137199Y-75095046D01*
X118118862Y-75096852D01*
X117631140Y-75096852D01*
X117615001Y-75095263D01*
X117605392Y-75092348D01*
X117596528Y-75087610D01*
X117588763Y-75081237D01*
X117578552Y-75068794D01*
X117571622Y-75058425D01*
X117554295Y-75041098D01*
X117533920Y-75027485D01*
X117511280Y-75018109D01*
X117487247Y-75013329D01*
X117462743Y-75013330D01*
X117438710Y-75018112D01*
X117416071Y-75027490D01*
X117395698Y-75041105D01*
X117378371Y-75058432D01*
X117371442Y-75068802D01*
X117361237Y-75081237D01*
X117353472Y-75087610D01*
X117344608Y-75092348D01*
X117334999Y-75095263D01*
X117318860Y-75096852D01*
X116831138Y-75096852D01*
X116812801Y-75095046D01*
X116800550Y-75094444D01*
X116782131Y-75094444D01*
X116759851Y-75092250D01*
X116675767Y-75075524D01*
X116654340Y-75069024D01*
X116575142Y-75036220D01*
X116569697Y-75033309D01*
X116569691Y-75033307D01*
X116560831Y-75028571D01*
X116560827Y-75028568D01*
X116555386Y-75025660D01*
X116484101Y-74978029D01*
X116466796Y-74963828D01*
X116406172Y-74903204D01*
X116391971Y-74885899D01*
X116344340Y-74814614D01*
X116341432Y-74809173D01*
X116341429Y-74809169D01*
X116336693Y-74800309D01*
X116336691Y-74800303D01*
X116333780Y-74794858D01*
X116300976Y-74715660D01*
X116294476Y-74694233D01*
X116277750Y-74610149D01*
X116275556Y-74587869D01*
X116275556Y-74569450D01*
X116274954Y-74557199D01*
X116273148Y-74538862D01*
X116273148Y-74051139D01*
X116274954Y-74032801D01*
X116275556Y-74020550D01*
X116275556Y-74002131D01*
X116277750Y-73979851D01*
X116294476Y-73895767D01*
X116300976Y-73874340D01*
X116333780Y-73795142D01*
X116336691Y-73789697D01*
X116336693Y-73789691D01*
X116341429Y-73780831D01*
X116341432Y-73780827D01*
X116344340Y-73775386D01*
X116391971Y-73704101D01*
X116406172Y-73686796D01*
X116466796Y-73626172D01*
X116484101Y-73611971D01*
X116555386Y-73564340D01*
X116560827Y-73561432D01*
X116560831Y-73561429D01*
X116569691Y-73556693D01*
X116569697Y-73556691D01*
X116575142Y-73553780D01*
X116654340Y-73520976D01*
X116675767Y-73514476D01*
X116759851Y-73497750D01*
X116782131Y-73495556D01*
X116800550Y-73495556D01*
X116812801Y-73494954D01*
X116831139Y-73493148D01*
X117318860Y-73493148D01*
X117334999Y-73494737D01*
X117334999Y-73494737D01*
G37*
G36*
X128009561Y-72107966D02*
G01*
X128042383Y-72117923D01*
X128072632Y-72134092D01*
X128099148Y-72155852D01*
X128120908Y-72182368D01*
X128137077Y-72212617D01*
X128147034Y-72245439D01*
X128151000Y-72285713D01*
X128151000Y-73764287D01*
X128147034Y-73804561D01*
X128137077Y-73837383D01*
X128120908Y-73867632D01*
X128099148Y-73894148D01*
X128072632Y-73915908D01*
X128042383Y-73932077D01*
X128009561Y-73942034D01*
X127969287Y-73946000D01*
X126030713Y-73946000D01*
X125990439Y-73942034D01*
X125957617Y-73932077D01*
X125927368Y-73915908D01*
X125900852Y-73894148D01*
X125879092Y-73867632D01*
X125862923Y-73837383D01*
X125852966Y-73804561D01*
X125849000Y-73764287D01*
X125849000Y-72285713D01*
X125852966Y-72245439D01*
X125862923Y-72212617D01*
X125879092Y-72182368D01*
X125900852Y-72155852D01*
X125927368Y-72134092D01*
X125957617Y-72117923D01*
X125990439Y-72107966D01*
X126030713Y-72104000D01*
X127969287Y-72104000D01*
X128009561Y-72107966D01*
X128009561Y-72107966D01*
G37*
G36*
X102455550Y-71281222D02*
G01*
X102564755Y-71302944D01*
X102770493Y-71388164D01*
X102955652Y-71511883D01*
X103113117Y-71669348D01*
X103236836Y-71854507D01*
X103322056Y-72060245D01*
X103336745Y-72134092D01*
X103351329Y-72207409D01*
X103365500Y-72278655D01*
X103365500Y-72501345D01*
X103322056Y-72719755D01*
X103236836Y-72925493D01*
X103113117Y-73110652D01*
X102955652Y-73268117D01*
X102770493Y-73391836D01*
X102564755Y-73477056D01*
X102474775Y-73494954D01*
X102346346Y-73520500D01*
X102123654Y-73520500D01*
X101995225Y-73494954D01*
X101905245Y-73477056D01*
X101699507Y-73391836D01*
X101514348Y-73268117D01*
X101356883Y-73110652D01*
X101233164Y-72925493D01*
X101147944Y-72719755D01*
X101104500Y-72501345D01*
X101104500Y-72278655D01*
X101118672Y-72207409D01*
X101133255Y-72134092D01*
X101147944Y-72060245D01*
X101233164Y-71854507D01*
X101356883Y-71669348D01*
X101514348Y-71511883D01*
X101699507Y-71388164D01*
X101905245Y-71302944D01*
X102014450Y-71281222D01*
X102123654Y-71259500D01*
X102346346Y-71259500D01*
X102455550Y-71281222D01*
X102455550Y-71281222D01*
G37*
G36*
X97375550Y-71281222D02*
G01*
X97484755Y-71302944D01*
X97690493Y-71388164D01*
X97875652Y-71511883D01*
X98033117Y-71669348D01*
X98156836Y-71854507D01*
X98242056Y-72060245D01*
X98256745Y-72134092D01*
X98271329Y-72207409D01*
X98285500Y-72278655D01*
X98285500Y-72501345D01*
X98242056Y-72719755D01*
X98156836Y-72925493D01*
X98033117Y-73110652D01*
X97875652Y-73268117D01*
X97690493Y-73391836D01*
X97484755Y-73477056D01*
X97394775Y-73494954D01*
X97266346Y-73520500D01*
X97043654Y-73520500D01*
X96915225Y-73494954D01*
X96825245Y-73477056D01*
X96619507Y-73391836D01*
X96434348Y-73268117D01*
X96276883Y-73110652D01*
X96153164Y-72925493D01*
X96067944Y-72719755D01*
X96024500Y-72501345D01*
X96024500Y-72278655D01*
X96038672Y-72207409D01*
X96053255Y-72134092D01*
X96067944Y-72060245D01*
X96153164Y-71854507D01*
X96276883Y-71669348D01*
X96434348Y-71511883D01*
X96619507Y-71388164D01*
X96825245Y-71302944D01*
X96934450Y-71281222D01*
X97043654Y-71259500D01*
X97266346Y-71259500D01*
X97375550Y-71281222D01*
X97375550Y-71281222D01*
G37*
G36*
X99915550Y-71281222D02*
G01*
X100024755Y-71302944D01*
X100230493Y-71388164D01*
X100415652Y-71511883D01*
X100573117Y-71669348D01*
X100696836Y-71854507D01*
X100782056Y-72060245D01*
X100796745Y-72134092D01*
X100811329Y-72207409D01*
X100825500Y-72278655D01*
X100825500Y-72501345D01*
X100782056Y-72719755D01*
X100696836Y-72925493D01*
X100573117Y-73110652D01*
X100415652Y-73268117D01*
X100230493Y-73391836D01*
X100024755Y-73477056D01*
X99934775Y-73494954D01*
X99806346Y-73520500D01*
X99583654Y-73520500D01*
X99455225Y-73494954D01*
X99365245Y-73477056D01*
X99159507Y-73391836D01*
X98974348Y-73268117D01*
X98816883Y-73110652D01*
X98693164Y-72925493D01*
X98607944Y-72719755D01*
X98564500Y-72501345D01*
X98564500Y-72278655D01*
X98578672Y-72207409D01*
X98593255Y-72134092D01*
X98607944Y-72060245D01*
X98693164Y-71854507D01*
X98816883Y-71669348D01*
X98974348Y-71511883D01*
X99159507Y-71388164D01*
X99365245Y-71302944D01*
X99474450Y-71281222D01*
X99583654Y-71259500D01*
X99806346Y-71259500D01*
X99915550Y-71281222D01*
X99915550Y-71281222D01*
G37*
G36*
X82635282Y-70204000D02*
G01*
X82818912Y-70240526D01*
X82937638Y-70289704D01*
X83105542Y-70359252D01*
X83105543Y-70359253D01*
X83363505Y-70531617D01*
X83582884Y-70750996D01*
X83698054Y-70923361D01*
X83755249Y-71008959D01*
X83759957Y-71020326D01*
X83873975Y-71295589D01*
X83934501Y-71599876D01*
X83934501Y-71910124D01*
X83873975Y-72214411D01*
X83824797Y-72333137D01*
X83755249Y-72501041D01*
X83755248Y-72501042D01*
X83582884Y-72759004D01*
X83363505Y-72978383D01*
X83191140Y-73093553D01*
X83105542Y-73150748D01*
X82937638Y-73220296D01*
X82818912Y-73269474D01*
X82514626Y-73330000D01*
X82204376Y-73330000D01*
X81900090Y-73269474D01*
X81781364Y-73220296D01*
X81613460Y-73150748D01*
X81527862Y-73093553D01*
X81355497Y-72978383D01*
X81136118Y-72759004D01*
X80963754Y-72501042D01*
X80963753Y-72501041D01*
X80894205Y-72333137D01*
X80845027Y-72214411D01*
X80784501Y-71910124D01*
X80784501Y-71599876D01*
X80845027Y-71295589D01*
X80959045Y-71020326D01*
X80963753Y-71008959D01*
X81020948Y-70923361D01*
X81136118Y-70750996D01*
X81355497Y-70531617D01*
X81613459Y-70359253D01*
X81613460Y-70359252D01*
X81781364Y-70289704D01*
X81900090Y-70240526D01*
X82083720Y-70204000D01*
X82204376Y-70180000D01*
X82514626Y-70180000D01*
X82635282Y-70204000D01*
X82635282Y-70204000D01*
G37*
G36*
X38849501Y-73330000D02*
G01*
X35699501Y-73330000D01*
X35699501Y-70180000D01*
X38849501Y-70180000D01*
X38849501Y-73330000D01*
X38849501Y-73330000D01*
G37*
G36*
X27607585Y-70233802D02*
G01*
X27757410Y-70263604D01*
X28039674Y-70380521D01*
X28293705Y-70550259D01*
X28509741Y-70766295D01*
X28679479Y-71020326D01*
X28796396Y-71302590D01*
X28856000Y-71602240D01*
X28856000Y-71907760D01*
X28796396Y-72207410D01*
X28679479Y-72489674D01*
X28509741Y-72743705D01*
X28293705Y-72959741D01*
X28039674Y-73129479D01*
X27757410Y-73246396D01*
X27648211Y-73268117D01*
X27457761Y-73306000D01*
X27152239Y-73306000D01*
X26961789Y-73268117D01*
X26852590Y-73246396D01*
X26570326Y-73129479D01*
X26316295Y-72959741D01*
X26100259Y-72743705D01*
X25930521Y-72489674D01*
X25813604Y-72207410D01*
X25754000Y-71907760D01*
X25754000Y-71602240D01*
X25813604Y-71302590D01*
X25930521Y-71020326D01*
X26100259Y-70766295D01*
X26316295Y-70550259D01*
X26570326Y-70380521D01*
X26852590Y-70263604D01*
X27002415Y-70233802D01*
X27152239Y-70204000D01*
X27457761Y-70204000D01*
X27607585Y-70233802D01*
X27607585Y-70233802D01*
G37*
G36*
X115786000Y-70701000D02*
G01*
X114084000Y-70701000D01*
X114084000Y-68999000D01*
X115786000Y-68999000D01*
X115786000Y-70701000D01*
X115786000Y-70701000D01*
G37*
G36*
X127277395Y-67665546D02*
G01*
X127450466Y-67737234D01*
X127474211Y-67753100D01*
X127606227Y-67841310D01*
X127738690Y-67973773D01*
X127738691Y-67973775D01*
X127842766Y-68129534D01*
X127914454Y-68302605D01*
X127951000Y-68486333D01*
X127951000Y-68673667D01*
X127914454Y-68857395D01*
X127842766Y-69030466D01*
X127842765Y-69030467D01*
X127738690Y-69186227D01*
X127606227Y-69318690D01*
X127527818Y-69371081D01*
X127450466Y-69422766D01*
X127277395Y-69494454D01*
X127093667Y-69531000D01*
X126906333Y-69531000D01*
X126722605Y-69494454D01*
X126549534Y-69422766D01*
X126472182Y-69371081D01*
X126393773Y-69318690D01*
X126261310Y-69186227D01*
X126157235Y-69030467D01*
X126157234Y-69030466D01*
X126085546Y-68857395D01*
X126049000Y-68673667D01*
X126049000Y-68486333D01*
X126085546Y-68302605D01*
X126157234Y-68129534D01*
X126261309Y-67973775D01*
X126261310Y-67973773D01*
X126393773Y-67841310D01*
X126525789Y-67753100D01*
X126549534Y-67737234D01*
X126722605Y-67665546D01*
X126906333Y-67629000D01*
X127093667Y-67629000D01*
X127277395Y-67665546D01*
X127277395Y-67665546D01*
G37*
G36*
X120277199Y-66109954D02*
G01*
X120289450Y-66110556D01*
X120307869Y-66110556D01*
X120330149Y-66112750D01*
X120414233Y-66129476D01*
X120435660Y-66135976D01*
X120514858Y-66168780D01*
X120520303Y-66171691D01*
X120520309Y-66171693D01*
X120529169Y-66176429D01*
X120529173Y-66176432D01*
X120534614Y-66179340D01*
X120605899Y-66226971D01*
X120623204Y-66241172D01*
X120683828Y-66301796D01*
X120698029Y-66319101D01*
X120745660Y-66390386D01*
X120748568Y-66395827D01*
X120748571Y-66395831D01*
X120753307Y-66404691D01*
X120753309Y-66404697D01*
X120756220Y-66410142D01*
X120789024Y-66489340D01*
X120795524Y-66510767D01*
X120812250Y-66594851D01*
X120814444Y-66617131D01*
X120814444Y-66635550D01*
X120815046Y-66647801D01*
X120816852Y-66666139D01*
X120816852Y-67153860D01*
X120815263Y-67169999D01*
X120812348Y-67179608D01*
X120807610Y-67188472D01*
X120801237Y-67196237D01*
X120788794Y-67206448D01*
X120778425Y-67213378D01*
X120761098Y-67230705D01*
X120747485Y-67251080D01*
X120738109Y-67273720D01*
X120733329Y-67297753D01*
X120733330Y-67322257D01*
X120738112Y-67346290D01*
X120747490Y-67368929D01*
X120761105Y-67389302D01*
X120778432Y-67406629D01*
X120788802Y-67413558D01*
X120801237Y-67423763D01*
X120807610Y-67431528D01*
X120812348Y-67440392D01*
X120815263Y-67450001D01*
X120816852Y-67466140D01*
X120816852Y-67953862D01*
X120815046Y-67972199D01*
X120814444Y-67984450D01*
X120814444Y-68002869D01*
X120812250Y-68025149D01*
X120795524Y-68109233D01*
X120789024Y-68130660D01*
X120756220Y-68209858D01*
X120753309Y-68215303D01*
X120753307Y-68215309D01*
X120748571Y-68224169D01*
X120748568Y-68224173D01*
X120745660Y-68229614D01*
X120698029Y-68300899D01*
X120683828Y-68318204D01*
X120623204Y-68378828D01*
X120605899Y-68393029D01*
X120534614Y-68440660D01*
X120529173Y-68443568D01*
X120529169Y-68443571D01*
X120520309Y-68448307D01*
X120520303Y-68448309D01*
X120514858Y-68451220D01*
X120435660Y-68484024D01*
X120429754Y-68485816D01*
X120429753Y-68485816D01*
X120428042Y-68486335D01*
X120414233Y-68490524D01*
X120330149Y-68507250D01*
X120307869Y-68509444D01*
X120289450Y-68509444D01*
X120277199Y-68510046D01*
X120258862Y-68511852D01*
X119771138Y-68511852D01*
X119752801Y-68510046D01*
X119740550Y-68509444D01*
X119722131Y-68509444D01*
X119699851Y-68507250D01*
X119615767Y-68490524D01*
X119601958Y-68486335D01*
X119600247Y-68485816D01*
X119600246Y-68485816D01*
X119594340Y-68484024D01*
X119515142Y-68451220D01*
X119509697Y-68448309D01*
X119509691Y-68448307D01*
X119500831Y-68443571D01*
X119500827Y-68443568D01*
X119495386Y-68440660D01*
X119424101Y-68393029D01*
X119406796Y-68378828D01*
X119346172Y-68318204D01*
X119331971Y-68300899D01*
X119284340Y-68229614D01*
X119281432Y-68224173D01*
X119281429Y-68224169D01*
X119276693Y-68215309D01*
X119276691Y-68215303D01*
X119273780Y-68209858D01*
X119240976Y-68130660D01*
X119234476Y-68109233D01*
X119217750Y-68025149D01*
X119215556Y-68002869D01*
X119215556Y-67984450D01*
X119214954Y-67972199D01*
X119213148Y-67953862D01*
X119213148Y-67466140D01*
X119214737Y-67450001D01*
X119217652Y-67440392D01*
X119222390Y-67431528D01*
X119228763Y-67423763D01*
X119241206Y-67413552D01*
X119251575Y-67406622D01*
X119268902Y-67389295D01*
X119282515Y-67368920D01*
X119291891Y-67346280D01*
X119296671Y-67322247D01*
X119296670Y-67297743D01*
X119291888Y-67273710D01*
X119282510Y-67251071D01*
X119268895Y-67230698D01*
X119251568Y-67213371D01*
X119241198Y-67206442D01*
X119228763Y-67196237D01*
X119222390Y-67188472D01*
X119217652Y-67179608D01*
X119214737Y-67169999D01*
X119213148Y-67153860D01*
X119213148Y-66666139D01*
X119214954Y-66647801D01*
X119215556Y-66635550D01*
X119215556Y-66617131D01*
X119217750Y-66594851D01*
X119234476Y-66510767D01*
X119240976Y-66489340D01*
X119273780Y-66410142D01*
X119276691Y-66404697D01*
X119276693Y-66404691D01*
X119281429Y-66395831D01*
X119281432Y-66395827D01*
X119284340Y-66390386D01*
X119331971Y-66319101D01*
X119346172Y-66301796D01*
X119406796Y-66241172D01*
X119424101Y-66226971D01*
X119495386Y-66179340D01*
X119500827Y-66176432D01*
X119500831Y-66176429D01*
X119509691Y-66171693D01*
X119509697Y-66171691D01*
X119515142Y-66168780D01*
X119594340Y-66135976D01*
X119615767Y-66129476D01*
X119699851Y-66112750D01*
X119722131Y-66110556D01*
X119740550Y-66110556D01*
X119752801Y-66109954D01*
X119771139Y-66108148D01*
X120258861Y-66108148D01*
X120277199Y-66109954D01*
X120277199Y-66109954D01*
G37*
G36*
X115183228Y-66531703D02*
G01*
X115338100Y-66595853D01*
X115477481Y-66688985D01*
X115596015Y-66807519D01*
X115689147Y-66946900D01*
X115753297Y-67101772D01*
X115786000Y-67266184D01*
X115786000Y-67433816D01*
X115753297Y-67598228D01*
X115689147Y-67753100D01*
X115596015Y-67892481D01*
X115477481Y-68011015D01*
X115338100Y-68104147D01*
X115183228Y-68168297D01*
X115018816Y-68201000D01*
X114851184Y-68201000D01*
X114686772Y-68168297D01*
X114531900Y-68104147D01*
X114392519Y-68011015D01*
X114273985Y-67892481D01*
X114180853Y-67753100D01*
X114116703Y-67598228D01*
X114084000Y-67433816D01*
X114084000Y-67266184D01*
X114116703Y-67101772D01*
X114180853Y-66946900D01*
X114273985Y-66807519D01*
X114392519Y-66688985D01*
X114531900Y-66595853D01*
X114686772Y-66531703D01*
X114851184Y-66499000D01*
X115018816Y-66499000D01*
X115183228Y-66531703D01*
X115183228Y-66531703D01*
G37*
G36*
X127951000Y-66991000D02*
G01*
X126049000Y-66991000D01*
X126049000Y-65089000D01*
X127951000Y-65089000D01*
X127951000Y-66991000D01*
X127951000Y-66991000D01*
G37*
G36*
X82666768Y-61955263D02*
G01*
X82818912Y-61985526D01*
X82937638Y-62034704D01*
X83105542Y-62104252D01*
X83168299Y-62146185D01*
X83363505Y-62276617D01*
X83582884Y-62495996D01*
X83698054Y-62668361D01*
X83755249Y-62753959D01*
X83762921Y-62772481D01*
X83865457Y-63020024D01*
X83873975Y-63040590D01*
X83934501Y-63344875D01*
X83934501Y-63655125D01*
X83873975Y-63959410D01*
X83755249Y-64246041D01*
X83755248Y-64246042D01*
X83582884Y-64504004D01*
X83363505Y-64723383D01*
X83191140Y-64838553D01*
X83105542Y-64895748D01*
X82937638Y-64965296D01*
X82818912Y-65014474D01*
X82514626Y-65075000D01*
X82204376Y-65075000D01*
X81900090Y-65014474D01*
X81781364Y-64965296D01*
X81613460Y-64895748D01*
X81527862Y-64838553D01*
X81355497Y-64723383D01*
X81136118Y-64504004D01*
X80963754Y-64246042D01*
X80963753Y-64246041D01*
X80845027Y-63959410D01*
X80784501Y-63655125D01*
X80784501Y-63344875D01*
X80845027Y-63040590D01*
X80853546Y-63020024D01*
X80956081Y-62772481D01*
X80963753Y-62753959D01*
X81020948Y-62668361D01*
X81136118Y-62495996D01*
X81355497Y-62276617D01*
X81550703Y-62146185D01*
X81613460Y-62104252D01*
X81781364Y-62034704D01*
X81900090Y-61985526D01*
X82052234Y-61955263D01*
X82204376Y-61925000D01*
X82514626Y-61925000D01*
X82666768Y-61955263D01*
X82666768Y-61955263D01*
G37*
G36*
X127248228Y-61411703D02*
G01*
X127403100Y-61475853D01*
X127542481Y-61568985D01*
X127661015Y-61687519D01*
X127754147Y-61826900D01*
X127818297Y-61981772D01*
X127851000Y-62146184D01*
X127851000Y-62313816D01*
X127818297Y-62478228D01*
X127754147Y-62633100D01*
X127661015Y-62772481D01*
X127542481Y-62891015D01*
X127403100Y-62984147D01*
X127248228Y-63048297D01*
X127083816Y-63081000D01*
X126916184Y-63081000D01*
X126751772Y-63048297D01*
X126596900Y-62984147D01*
X126457519Y-62891015D01*
X126338985Y-62772481D01*
X126245853Y-62633100D01*
X126181703Y-62478228D01*
X126149000Y-62313816D01*
X126149000Y-62146184D01*
X126181703Y-61981772D01*
X126245853Y-61826900D01*
X126338985Y-61687519D01*
X126457519Y-61568985D01*
X126596900Y-61475853D01*
X126751772Y-61411703D01*
X126916184Y-61379000D01*
X127083816Y-61379000D01*
X127248228Y-61411703D01*
X127248228Y-61411703D01*
G37*
G36*
X119546823Y-61391313D02*
G01*
X119707242Y-61439976D01*
X119774361Y-61475852D01*
X119855078Y-61518996D01*
X119984659Y-61625341D01*
X120091004Y-61754922D01*
X120091005Y-61754924D01*
X120170024Y-61902758D01*
X120218687Y-62063177D01*
X120235117Y-62230000D01*
X120218687Y-62396823D01*
X120170024Y-62557242D01*
X120129477Y-62633100D01*
X120091004Y-62705078D01*
X119984659Y-62834659D01*
X119855078Y-62941004D01*
X119855076Y-62941005D01*
X119707242Y-63020024D01*
X119546823Y-63068687D01*
X119421804Y-63081000D01*
X119338196Y-63081000D01*
X119213177Y-63068687D01*
X119052758Y-63020024D01*
X118904924Y-62941005D01*
X118904922Y-62941004D01*
X118775341Y-62834659D01*
X118668996Y-62705078D01*
X118630523Y-62633100D01*
X118589976Y-62557242D01*
X118541313Y-62396823D01*
X118524883Y-62230000D01*
X118541313Y-62063177D01*
X118589976Y-61902758D01*
X118668995Y-61754924D01*
X118668996Y-61754922D01*
X118775341Y-61625341D01*
X118904922Y-61518996D01*
X118985639Y-61475852D01*
X119052758Y-61439976D01*
X119213177Y-61391313D01*
X119338196Y-61379000D01*
X119421804Y-61379000D01*
X119546823Y-61391313D01*
X119546823Y-61391313D01*
G37*
G36*
X114556000Y-59271000D02*
G01*
X112854000Y-59271000D01*
X112854000Y-57569000D01*
X114556000Y-57569000D01*
X114556000Y-59271000D01*
X114556000Y-59271000D01*
G37*
G36*
X116453228Y-57601703D02*
G01*
X116608100Y-57665853D01*
X116747481Y-57758985D01*
X116866015Y-57877519D01*
X116959147Y-58016900D01*
X117023297Y-58171772D01*
X117056000Y-58336184D01*
X117056000Y-58503816D01*
X117023297Y-58668228D01*
X116959147Y-58823100D01*
X116866015Y-58962481D01*
X116747481Y-59081015D01*
X116608100Y-59174147D01*
X116453228Y-59238297D01*
X116288816Y-59271000D01*
X116121184Y-59271000D01*
X115956772Y-59238297D01*
X115801900Y-59174147D01*
X115662519Y-59081015D01*
X115543985Y-58962481D01*
X115450853Y-58823100D01*
X115386703Y-58668228D01*
X115354000Y-58503816D01*
X115354000Y-58336184D01*
X115386703Y-58171772D01*
X115450853Y-58016900D01*
X115543985Y-57877519D01*
X115662519Y-57758985D01*
X115801900Y-57665853D01*
X115956772Y-57601703D01*
X116121184Y-57569000D01*
X116288816Y-57569000D01*
X116453228Y-57601703D01*
X116453228Y-57601703D01*
G37*
G36*
X100017133Y-55530527D02*
G01*
X100176637Y-55562255D01*
X100264651Y-55598711D01*
X100477136Y-55686725D01*
X100747578Y-55867429D01*
X100977571Y-56097422D01*
X101158275Y-56367864D01*
X101246289Y-56580349D01*
X101282745Y-56668363D01*
X101346200Y-56987371D01*
X101346200Y-57312629D01*
X101282745Y-57631637D01*
X101268572Y-57665853D01*
X101158275Y-57932136D01*
X100977571Y-58202578D01*
X100747578Y-58432571D01*
X100477136Y-58613275D01*
X100264651Y-58701289D01*
X100176637Y-58737745D01*
X100017133Y-58769472D01*
X99857630Y-58801200D01*
X99532370Y-58801200D01*
X99372867Y-58769472D01*
X99213363Y-58737745D01*
X99125349Y-58701289D01*
X98912864Y-58613275D01*
X98642422Y-58432571D01*
X98412429Y-58202578D01*
X98231725Y-57932136D01*
X98121428Y-57665853D01*
X98107255Y-57631637D01*
X98043800Y-57312629D01*
X98043800Y-56987371D01*
X98107255Y-56668363D01*
X98143711Y-56580349D01*
X98231725Y-56367864D01*
X98412429Y-56097422D01*
X98642422Y-55867429D01*
X98912864Y-55686725D01*
X99125349Y-55598711D01*
X99213363Y-55562255D01*
X99372867Y-55530527D01*
X99532370Y-55498800D01*
X99857630Y-55498800D01*
X100017133Y-55530527D01*
X100017133Y-55530527D01*
G37*
G36*
X100017133Y-49180528D02*
G01*
X100176637Y-49212255D01*
X100264651Y-49248711D01*
X100477136Y-49336725D01*
X100747578Y-49517429D01*
X100977571Y-49747422D01*
X101158275Y-50017864D01*
X101246289Y-50230349D01*
X101282745Y-50318363D01*
X101314473Y-50477867D01*
X101346200Y-50637370D01*
X101346200Y-50962630D01*
X101282745Y-51281636D01*
X101158275Y-51582136D01*
X100977571Y-51852578D01*
X100747578Y-52082571D01*
X100477136Y-52263275D01*
X100264651Y-52351289D01*
X100176637Y-52387745D01*
X100017133Y-52419472D01*
X99857630Y-52451200D01*
X99532370Y-52451200D01*
X99372867Y-52419472D01*
X99213363Y-52387745D01*
X99125349Y-52351289D01*
X98912864Y-52263275D01*
X98642422Y-52082571D01*
X98412429Y-51852578D01*
X98231725Y-51582136D01*
X98107255Y-51281636D01*
X98043800Y-50962630D01*
X98043800Y-50637370D01*
X98075527Y-50477867D01*
X98107255Y-50318363D01*
X98143711Y-50230349D01*
X98231725Y-50017864D01*
X98412429Y-49747422D01*
X98642422Y-49517429D01*
X98912864Y-49336725D01*
X99125349Y-49248711D01*
X99213363Y-49212255D01*
X99372867Y-49180527D01*
X99532370Y-49148800D01*
X99857630Y-49148800D01*
X100017133Y-49180528D01*
X100017133Y-49180528D01*
G37*
G36*
X38849501Y-52375000D02*
G01*
X35699501Y-52375000D01*
X35699501Y-49225000D01*
X38849501Y-49225000D01*
X38849501Y-52375000D01*
X38849501Y-52375000D01*
G37*
G36*
X126740256Y-48556298D02*
G01*
X126846579Y-48577447D01*
X127147042Y-48701903D01*
X127417451Y-48882585D01*
X127647415Y-49112549D01*
X127828097Y-49382958D01*
X127952553Y-49683421D01*
X128016000Y-50002391D01*
X128016000Y-50327609D01*
X127952553Y-50646579D01*
X127828097Y-50947042D01*
X127647415Y-51217451D01*
X127417451Y-51447415D01*
X127147042Y-51628097D01*
X126846579Y-51752553D01*
X126740256Y-51773702D01*
X126527611Y-51816000D01*
X126202389Y-51816000D01*
X125989744Y-51773702D01*
X125883421Y-51752553D01*
X125582958Y-51628097D01*
X125312549Y-51447415D01*
X125082585Y-51217451D01*
X124901903Y-50947042D01*
X124777447Y-50646579D01*
X124714000Y-50327609D01*
X124714000Y-50002391D01*
X124777447Y-49683421D01*
X124901903Y-49382958D01*
X125082585Y-49112549D01*
X125312549Y-48882585D01*
X125582958Y-48701903D01*
X125883421Y-48577447D01*
X125989744Y-48556298D01*
X126202389Y-48514000D01*
X126527611Y-48514000D01*
X126740256Y-48556298D01*
X126740256Y-48556298D01*
G37*
G36*
X27680256Y-48556298D02*
G01*
X27786579Y-48577447D01*
X28087042Y-48701903D01*
X28357451Y-48882585D01*
X28587415Y-49112549D01*
X28768097Y-49382958D01*
X28892553Y-49683421D01*
X28956000Y-50002391D01*
X28956000Y-50327609D01*
X28892553Y-50646579D01*
X28768097Y-50947042D01*
X28587415Y-51217451D01*
X28357451Y-51447415D01*
X28087042Y-51628097D01*
X27786579Y-51752553D01*
X27680256Y-51773702D01*
X27467611Y-51816000D01*
X27142389Y-51816000D01*
X26929744Y-51773702D01*
X26823421Y-51752553D01*
X26522958Y-51628097D01*
X26252549Y-51447415D01*
X26022585Y-51217451D01*
X25841903Y-50947042D01*
X25717447Y-50646579D01*
X25654000Y-50327609D01*
X25654000Y-50002391D01*
X25717447Y-49683421D01*
X25841903Y-49382958D01*
X26022585Y-49112549D01*
X26252549Y-48882585D01*
X26522958Y-48701903D01*
X26823421Y-48577447D01*
X26929744Y-48556298D01*
X27142389Y-48514000D01*
X27467611Y-48514000D01*
X27680256Y-48556298D01*
X27680256Y-48556298D01*
G37*
M02*
