M48
; DRILL file {KiCad (5.1.2)-1} date 23/09/2020 15:34:56
; FORMAT={-:-/ absolute / inch / decimal}
; #@! TF.CreationDate,2020-09-23T15:34:56+02:00
; #@! TF.GenerationSoftware,Kicad,Pcbnew,(5.1.2)-1
FMAT,2
INCH
T1C0.0157
T2C0.0315
T3C0.0354
T4C0.0472
T5C0.0500
T6C0.0598
T7C0.0600
T8C0.1260
T9C0.1260
%
G90
G05
T1
X3.4Y-2.65
X3.4Y-2.85
X3.4Y-4.225
X3.4Y-4.425
X4.375Y-2.65
X4.475Y-3.35
X4.525Y-2.925
X4.65Y-3.125
X4.725Y-2.55
X4.725Y-2.8
X4.725Y-3.025
X4.725Y-4.1
X4.8Y-2.875
T2
X4.525Y-2.6516
X4.525Y-2.75
X4.4766Y-3.55
X4.575Y-3.55
X4.575Y-4.0
X4.575Y-4.0984
X4.4766Y-2.3
X4.575Y-2.3
X4.7Y-2.45
X5.0Y-2.45
X4.725Y-3.5
X5.025Y-3.5
T3
X5.0Y-2.6
X5.0Y-2.7
X5.0Y-3.25
X5.0Y-3.35
T4
X5.0Y-3.8
X5.0Y-3.9
X5.0Y-4.0
X5.0Y-4.1
X5.0Y-2.875
X5.0Y-2.975
X5.0Y-3.075
T5
X3.825Y-2.85
X3.925Y-2.85
X4.025Y-2.85
X3.825Y-4.4
X3.925Y-4.4
X4.025Y-4.4
T6
X1.075Y-2.825
X1.075Y-3.025
X1.075Y-3.225
X1.075Y-3.425
X1.075Y-3.625
X1.075Y-3.825
T7
X1.4675Y-3.825
X1.4675Y-4.65
X3.2425Y-4.325
X3.2425Y-4.65
X1.4675Y-2.0
X1.4675Y-2.825
X3.2425Y-2.5
X3.2425Y-2.825
T8
X3.025Y-3.325
X1.075Y-4.675
X4.975Y-4.675
X1.075Y-1.975
X4.975Y-1.975
T9
X3.925Y-2.0
X3.925Y-2.25
X3.925Y-3.1
X3.925Y-3.55
X3.925Y-3.8
X3.925Y-4.65
T0
M30
